<?xml version="1.0" encoding="utf-8"?>
<!-- Generator: Adobe Illustrator 16.0.0, SVG Export Plug-In . SVG Version: 6.00 Build 0)  -->
<!DOCTYPE svg PUBLIC "-//W3C//DTD SVG 1.1//EN" "http://www.w3.org/Graphics/SVG/1.1/DTD/svg11.dtd">
<svg version="1.1" id="Layer_1" xmlns="http://www.w3.org/2000/svg" xmlns:xlink="http://www.w3.org/1999/xlink" x="0px" y="0px"
	 width="1.011px" height="1.038px" viewBox="-0.005 9.491 1.011 1.038" enable-background="new -0.005 9.491 1.011 1.038"
	 xml:space="preserve">
<g id="Layer_3">
	<rect x="-0.139" y="9.399" display="none" fill="#FF0000" width="1.42" height="1.255"/>
	<rect x="-0.022" y="9.502" display="none" fill="#231F20" width="1" height="1.018"/>
</g>
<g id="Layer_1_1_" display="none">
	<path display="inline" fill="#FFFFFF" d="M0.558,10.056c-0.032,0-0.063,0-0.095,0c0,0.001,0,0.002,0,0.004
		C0.495,10.069,0.526,10.069,0.558,10.056z"/>
	<path display="inline" fill="#FFFFFF" d="M0.566,10.081c-0.037,0-0.074,0-0.111,0C0.473,10.096,0.545,10.096,0.566,10.081z"/>
	<path display="inline" fill="#FFFFFF" d="M0.437,9.686c0.051-0.016,0.098-0.014,0.149,0C0.564,9.662,0.454,9.662,0.437,9.686z"/>
	<path display="inline" fill="#FFFFFF" d="M0.447,9.706c0.021-0.002,0.042-0.005,0.062-0.005c0.021,0,0.042,0.004,0.064,0.006
		C0.565,9.689,0.479,9.686,0.447,9.706z"/>
	<path display="inline" fill="#FFFFFF" d="M0.582,10.125c-0.047,0.012-0.095,0.012-0.145-0.002
		C0.454,10.147,0.557,10.148,0.582,10.125z"/>
	<path display="inline" fill="#FFFFFF" d="M0.455,9.731c0.037-0.009,0.074-0.009,0.111,0C0.545,9.713,0.472,9.713,0.455,9.731z"/>
	<path display="inline" fill="#FFFFFF" d="M0.573,10.101c-0.042,0.013-0.084,0.01-0.127,0.002
		C0.471,10.122,0.558,10.121,0.573,10.101z"/>
	<path display="inline" fill="#FFFFFF" d="M0.463,9.753c0.032,0,0.063,0,0.096,0C0.538,9.739,0.477,9.739,0.463,9.753z"/>
	<path display="inline" fill="#FFFFFF" d="M-0.005,9.491v1.038h1.011V9.491H-0.005z M0.973,10.493c-0.312,0-0.625,0-0.938,0
		c0-0.317,0-0.634,0-0.951c0.313,0,0.626,0,0.938,0C0.973,9.859,0.973,10.176,0.973,10.493z"/>
	<path display="inline" fill="#FFFFFF" d="M0.608,10.3c-0.001,0.019-0.002,0.037-0.003,0.056c0.001,0,0.003,0.001,0.005,0.002
		c0.002-0.003,0.006-0.006,0.006-0.009c0-0.017-0.002-0.033-0.003-0.05C0.611,10.3,0.61,10.3,0.608,10.3z"/>
	<path display="inline" fill="#FFFFFF" d="M0.069,9.577c0,0.294,0,0.588,0,0.882c0.29,0,0.579,0,0.87,0c0-0.295,0-0.588,0-0.882
		C0.647,9.577,0.358,9.577,0.069,9.577z M0.173,10.417c-0.033,0.005-0.049-0.012-0.048-0.04c0.002-0.034,0-0.068,0-0.102
		c0-0.024,0.012-0.036,0.036-0.036c0.023,0,0.037,0.013,0.037,0.036c0,0.022-0.001,0.023-0.03,0.022c0-0.006,0.001-0.013,0-0.019
		c0-0.004-0.004-0.008-0.007-0.012c-0.002,0.003-0.006,0.007-0.006,0.011c0,0.028,0,0.056,0,0.083c0,0.006-0.001,0.012,0,0.018
		c0,0.004,0.004,0.008,0.006,0.012c0.002-0.004,0.006-0.008,0.007-0.013c0.001-0.01,0-0.02,0-0.029c0.002,0,0.003-0.001,0.003-0.001
		c0.009,0.004,0.025-0.006,0.027,0.013C0.201,10.396,0.192,10.414,0.173,10.417z M0.246,10.415c-0.009,0-0.018,0-0.027,0
		c0-0.057,0-0.115,0-0.174c0.01,0,0.018,0,0.027,0C0.246,10.299,0.246,10.357,0.246,10.415z M0.348,10.414
		c-0.021,0.004-0.021,0.004-0.027-0.015c-0.006-0.02-0.012-0.039-0.021-0.059c0,0.024,0,0.049,0,0.074c-0.01,0-0.019,0-0.029,0
		c0-0.058,0-0.115,0-0.172c0.021-0.004,0.021-0.004,0.028,0.015c0.006,0.02,0.013,0.039,0.019,0.059c0.001,0,0.002,0,0.003,0
		c0-0.024,0-0.049,0-0.074c0.01,0,0.018,0,0.028,0C0.348,10.299,0.348,10.357,0.348,10.414z M0.432,10.268
		c-0.01,0-0.019,0.001-0.03,0.001c0,0.012,0,0.022,0,0.034c0.009,0.001,0.02,0.001,0.026,0.006c0.004,0.003,0.001,0.015,0.001,0.024
		c-0.009,0-0.018,0.001-0.027,0.001c0,0.004-0.001,0.007-0.001,0.011c0,0.012,0,0.025,0,0.039c0.011,0,0.02,0,0.031,0
		c0,0.01,0,0.019,0,0.03c-0.009,0-0.019,0-0.029,0s-0.02,0-0.03,0c0-0.059,0-0.116,0-0.175c0.02,0,0.039,0,0.059,0
		C0.432,10.25,0.432,10.258,0.432,10.268z M0.225,9.898C0.229,9.761,0.33,9.646,0.462,9.625c0.155-0.024,0.266,0.073,0.3,0.154
		C0.759,9.781,0.756,9.784,0.75,9.787C0.698,9.695,0.621,9.642,0.515,9.638c-0.076-0.002-0.143,0.025-0.196,0.08
		c-0.109,0.111-0.102,0.288,0.017,0.39c0.123,0.105,0.323,0.08,0.411-0.078c0.004,0.002,0.009,0.005,0.013,0.007
		c-0.045,0.093-0.167,0.175-0.311,0.145C0.317,10.154,0.221,10.033,0.225,9.898z M0.479,9.813c-0.04,0.013-0.067,0.052-0.066,0.093
		c0.001,0.042,0.029,0.079,0.069,0.09c0.044,0.014,0.084-0.003,0.116-0.051c0.007,0.003,0.014,0.007,0.021,0.011
		c-0.02,0.049-0.077,0.078-0.132,0.068c-0.058-0.011-0.099-0.06-0.1-0.118c0-0.059,0.04-0.108,0.098-0.121
		c0.057-0.012,0.114,0.018,0.137,0.073C0.615,9.863,0.608,9.867,0.6,9.871C0.587,9.843,0.568,9.823,0.539,9.813
		C0.519,9.807,0.499,9.807,0.479,9.813z M0.525,9.905C0.517,9.91,0.513,9.915,0.509,9.914s-0.007-0.007-0.01-0.01
		C0.502,9.9,0.506,9.895,0.51,9.894C0.513,9.894,0.518,9.9,0.525,9.905z M0.512,9.772c-0.037-0.001-0.07,0.012-0.096,0.039
		C0.36,9.866,0.364,9.954,0.423,10.005c0.053,0.046,0.153,0.049,0.208-0.042c0.035,0.02,0.07,0.04,0.105,0.06
		c-0.034,0.075-0.137,0.157-0.269,0.134c-0.122-0.021-0.211-0.124-0.213-0.247c-0.003-0.122,0.082-0.229,0.2-0.255
		c0.13-0.029,0.244,0.046,0.286,0.138c-0.035,0.02-0.07,0.04-0.106,0.06C0.607,9.803,0.568,9.774,0.512,9.772z M0.552,10.415
		c-0.009,0-0.018,0-0.029,0c0-0.024,0-0.048,0-0.072c0,0-0.002,0-0.003,0c-0.004,0.018-0.009,0.035-0.014,0.052
		c-0.001,0-0.002,0-0.003,0.001c-0.005-0.018-0.01-0.035-0.015-0.052c-0.001,0-0.001,0-0.002,0c0,0.024,0,0.047,0,0.072
		c-0.011,0-0.02,0-0.029,0c0-0.058,0-0.115,0-0.172c0.023-0.006,0.026-0.005,0.032,0.019c0.005,0.022,0.01,0.044,0.015,0.066
		c0.001,0,0.002,0,0.003,0c0.005-0.022,0.01-0.044,0.015-0.065c0.005-0.024,0.005-0.024,0.031-0.02
		C0.552,10.299,0.552,10.357,0.552,10.415z M0.622,10.413c-0.005-0.005-0.003-0.017-0.004-0.027c-0.005,0-0.009,0-0.015,0
		c-0.001,0.01-0.002,0.019-0.003,0.029c-0.01,0-0.019,0-0.029,0c0.004-0.041,0.009-0.081,0.013-0.12
		c0.001-0.014,0.004-0.028,0.005-0.042c0-0.01,0.004-0.013,0.014-0.013c0.027,0,0.028,0,0.031,0.026
		c0.006,0.049,0.011,0.099,0.017,0.151C0.64,10.416,0.627,10.418,0.622,10.413z M0.725,10.268c-0.006,0.001-0.012,0.001-0.02,0.002
		c0,0.048,0,0.096,0,0.145c-0.01,0-0.019,0-0.03,0c0-0.048,0-0.096,0-0.145c-0.008-0.001-0.014-0.002-0.021-0.003
		c0-0.009,0-0.017,0-0.026c0.024,0,0.046,0,0.07,0C0.725,10.25,0.725,10.259,0.725,10.268z M0.754,10.415c0-0.058,0-0.115,0-0.173
		c0.004,0,0.006-0.001,0.008-0.001c0.02-0.001,0.02-0.001,0.02,0.019c0,0.044,0,0.088,0,0.132
		C0.782,10.418,0.782,10.418,0.754,10.415z M0.882,10.294c-0.01,0.001-0.018,0.002-0.028,0.004c0-0.009,0.001-0.017,0-0.024
		c0-0.003-0.005-0.006-0.007-0.009c-0.002,0.003-0.007,0.006-0.007,0.009c0,0.035,0,0.07,0,0.105c0,0.004,0.005,0.007,0.008,0.011
		c0.002-0.003,0.006-0.007,0.006-0.011c0.001-0.01,0-0.021,0-0.032c0.008,0,0.015,0.001,0.021,0.003
		c0.002,0,0.006,0.003,0.006,0.005c0,0.014,0.001,0.029-0.002,0.042c-0.004,0.017-0.02,0.022-0.043,0.019
		c-0.015-0.002-0.025-0.011-0.025-0.028c0-0.041-0.001-0.081,0-0.122c0.001-0.019,0.016-0.029,0.036-0.029
		c0.022,0.001,0.035,0.012,0.035,0.032C0.882,10.278,0.882,10.286,0.882,10.294z"/>
	<g display="inline">
		<g>
			<path fill="#FFFFFF" d="M0.114,10.396c0.003,0.003,0.006,0.005,0.01,0.007c0.003,0.001,0.008,0.002,0.012,0.002h0.009
				c0.004,0,0.008-0.001,0.012-0.002s0.007-0.004,0.01-0.007c0.003-0.002,0.005-0.006,0.007-0.01
				c0.001-0.003,0.002-0.008,0.002-0.012v-0.031c0-0.002-0.001-0.003-0.003-0.004l-0.022-0.003c-0.002-0.001-0.003,0-0.003,0.002
				v0.035c0,0.001,0,0.003-0.002,0.004c-0.001,0.001-0.002,0.002-0.004,0.002H0.14c-0.001,0-0.003,0-0.004-0.002
				c-0.001-0.001-0.002-0.002-0.002-0.004v-0.112c0-0.001,0.001-0.003,0.002-0.004c0.001-0.001,0.002-0.002,0.004-0.002h0.002
				c0.001,0,0.003,0.001,0.004,0.002c0.001,0.001,0.002,0.002,0.002,0.004v0.024c0,0.002,0.001,0.003,0.003,0.002l0.022-0.003
				c0.002,0,0.003-0.002,0.003-0.004v-0.02c0-0.004-0.001-0.008-0.002-0.012c-0.001-0.003-0.004-0.007-0.007-0.01
				c-0.002-0.002-0.006-0.005-0.01-0.006c-0.003-0.002-0.008-0.002-0.012-0.002H0.136c-0.004,0-0.008,0-0.012,0.002
				c-0.004,0.001-0.007,0.004-0.01,0.006c-0.003,0.003-0.005,0.006-0.007,0.01c-0.001,0.004-0.002,0.008-0.002,0.012v0.114
				c0,0.004,0.001,0.008,0.002,0.012S0.111,10.394,0.114,10.396z"/>
			<path fill="#FFFFFF" d="M0.199,10.404h0.022c0.002,0,0.003-0.001,0.003-0.003v-0.167c0-0.002-0.001-0.003-0.003-0.003H0.199
				c-0.002,0-0.003,0.001-0.003,0.003V10.4C0.195,10.402,0.196,10.404,0.199,10.404z"/>
			<path fill="#FFFFFF" d="M0.322,10.23H0.3c-0.002,0-0.003,0.001-0.003,0.003v0.079l-0.026-0.079c0-0.001,0-0.002-0.001-0.002
				S0.268,10.23,0.267,10.23H0.25c-0.002,0-0.003,0.001-0.003,0.003V10.4c0,0.002,0.001,0.003,0.003,0.003h0.022
				c0.002,0,0.003-0.001,0.003-0.003v-0.082l0.026,0.082c0,0,0.001,0.001,0.002,0.002s0.002,0.001,0.002,0.001h0.016
				c0.002,0,0.003-0.001,0.003-0.003v-0.167C0.326,10.231,0.325,10.23,0.322,10.23z"/>
			<path fill="#FFFFFF" d="M0.405,10.23H0.352c-0.002,0-0.003,0.001-0.003,0.003V10.4c0,0.002,0.001,0.003,0.003,0.003h0.054
				c0.002,0,0.003-0.001,0.003-0.003v-0.022c0-0.002-0.001-0.003-0.003-0.003H0.377v-0.051h0.024c0.002,0,0.003-0.001,0.003-0.003
				v-0.022c0-0.002-0.001-0.003-0.003-0.003H0.377V10.26h0.028c0.002,0,0.003-0.001,0.003-0.003v-0.022
				C0.409,10.231,0.407,10.23,0.405,10.23z"/>
			<path fill="#FFFFFF" d="M0.522,10.23H0.501c-0.001,0-0.002,0-0.002,0.001c-0.001,0-0.001,0.001-0.002,0.002l-0.02,0.089
				l-0.02-0.089c0-0.001,0-0.001-0.001-0.002c0,0-0.001-0.001-0.002-0.001H0.433c-0.002,0-0.003,0.001-0.003,0.003V10.4
				c0,0.002,0.001,0.003,0.003,0.003h0.023c0.002,0,0.003-0.001,0.003-0.003v-0.078l0.017,0.063c0,0.001,0,0.001,0.001,0.001
				c0.001,0,0.001,0,0.001-0.001l0.017-0.063V10.4c0,0.002,0.001,0.003,0.003,0.003h0.023c0.002,0,0.003-0.001,0.003-0.003v-0.166
				C0.526,10.231,0.525,10.23,0.522,10.23z"/>
			<path fill="#FFFFFF" d="M0.603,10.234c0-0.002-0.001-0.003-0.004-0.003H0.566c-0.002,0-0.003,0.001-0.004,0.003L0.543,10.4
				c0,0.002,0,0.003,0.003,0.003h0.022c0.002,0,0.003-0.001,0.003-0.003l0.002-0.027H0.59L0.592,10.4
				c0,0.002,0.001,0.003,0.003,0.003h0.023c0.002,0,0.003-0.001,0.003-0.003L0.603,10.234z M0.577,10.346l0.005-0.067h0.001
				l0.005,0.067H0.577z"/>
			<path fill="#FFFFFF" d="M0.692,10.23H0.629c-0.002,0-0.003,0.001-0.003,0.003v0.022c0,0.002,0.001,0.003,0.003,0.003h0.018V10.4
				c0,0.001,0,0.001,0.001,0.002c0,0,0.001,0.001,0.002,0.001h0.022c0.002,0,0.003-0.001,0.003-0.003v-0.141h0.018
				c0.002,0,0.003-0.001,0.003-0.003v-0.022C0.696,10.231,0.695,10.23,0.692,10.23z"/>
			<path fill="#FFFFFF" d="M0.748,10.23H0.726c-0.002,0-0.003,0.001-0.003,0.003V10.4c0,0.002,0.001,0.003,0.003,0.003h0.022
				c0.002,0,0.003-0.001,0.003-0.003v-0.166C0.751,10.231,0.75,10.23,0.748,10.23z"/>
			<path fill="#FFFFFF" d="M0.788,10.396c0.003,0.003,0.006,0.005,0.01,0.007c0.003,0.001,0.008,0.002,0.012,0.002h0.009
				c0.004,0,0.008-0.001,0.012-0.002s0.007-0.004,0.01-0.007c0.003-0.002,0.005-0.006,0.007-0.01
				c0.001-0.003,0.002-0.008,0.002-0.012v-0.031c0-0.002-0.001-0.003-0.003-0.004l-0.022-0.003c-0.002-0.001-0.003,0-0.003,0.002
				v0.035c0,0.001,0,0.003-0.002,0.004c-0.001,0.001-0.002,0.002-0.004,0.002H0.813c-0.001,0-0.003,0-0.004-0.002
				c-0.001-0.001-0.002-0.002-0.002-0.004v-0.112c0-0.001,0.001-0.003,0.002-0.004c0.001-0.001,0.002-0.002,0.004-0.002h0.002
				c0.001,0,0.003,0.001,0.004,0.002c0.001,0.001,0.002,0.002,0.002,0.004v0.024c0,0.002,0.001,0.003,0.003,0.002l0.022-0.003
				c0.002,0,0.003-0.002,0.003-0.004v-0.02c0-0.004-0.001-0.008-0.002-0.012c-0.001-0.003-0.004-0.007-0.007-0.01
				c-0.002-0.002-0.006-0.005-0.01-0.006c-0.003-0.002-0.008-0.002-0.012-0.002H0.81c-0.004,0-0.008,0-0.012,0.002
				c-0.004,0.001-0.007,0.004-0.01,0.006c-0.003,0.003-0.005,0.006-0.007,0.01c-0.001,0.004-0.002,0.008-0.002,0.012v0.114
				c0,0.004,0.001,0.008,0.002,0.012S0.785,10.394,0.788,10.396z"/>
			<path fill="#FFFFFF" d="M0.018,9.541v0.941h0.92V9.541H0.018z M0.906,10.45H0.049V9.573h0.857V10.45z"/>
		</g>
		<circle fill="#FFFFFF" cx="0.483" cy="9.9" r="0.011"/>
		<g>
			<path fill="#FFFFFF" d="M0.483,9.806c0.041,0,0.075,0.026,0.088,0.062l0.022-0.012C0.576,9.812,0.533,9.78,0.483,9.78
				c-0.066,0-0.12,0.054-0.12,0.12c0,0.066,0.054,0.12,0.12,0.12c0.047,0,0.089-0.028,0.108-0.068L0.569,9.939
				C0.554,9.972,0.521,9.995,0.483,9.995c-0.052,0-0.095-0.042-0.095-0.095C0.389,9.848,0.431,9.806,0.483,9.806z"/>
		</g>
		<g>
			<path fill="#FFFFFF" d="M0.114,10.396c0.003,0.003,0.006,0.005,0.01,0.007c0.003,0.001,0.008,0.002,0.012,0.002h0.009
				c0.004,0,0.008-0.001,0.012-0.002s0.007-0.004,0.01-0.007c0.003-0.002,0.005-0.006,0.007-0.01
				c0.001-0.003,0.002-0.008,0.002-0.012v-0.031c0-0.002-0.001-0.003-0.003-0.004l-0.022-0.003c-0.002-0.001-0.003,0-0.003,0.002
				v0.035c0,0.001,0,0.003-0.002,0.004c-0.001,0.001-0.002,0.002-0.004,0.002H0.14c-0.001,0-0.003,0-0.004-0.002
				c-0.001-0.001-0.002-0.002-0.002-0.004v-0.112c0-0.001,0.001-0.003,0.002-0.004c0.001-0.001,0.002-0.002,0.004-0.002h0.002
				c0.001,0,0.003,0.001,0.004,0.002c0.001,0.001,0.002,0.002,0.002,0.004v0.024c0,0.002,0.001,0.003,0.003,0.002l0.022-0.003
				c0.002,0,0.003-0.002,0.003-0.004v-0.02c0-0.004-0.001-0.008-0.002-0.012c-0.001-0.003-0.004-0.007-0.007-0.01
				c-0.002-0.002-0.006-0.005-0.01-0.006c-0.003-0.002-0.008-0.002-0.012-0.002H0.136c-0.004,0-0.008,0-0.012,0.002
				c-0.004,0.001-0.007,0.004-0.01,0.006c-0.003,0.003-0.005,0.006-0.007,0.01c-0.001,0.004-0.002,0.008-0.002,0.012v0.114
				c0,0.004,0.001,0.008,0.002,0.012S0.111,10.394,0.114,10.396z"/>
			<path fill="#FFFFFF" d="M0.199,10.404h0.022c0.002,0,0.003-0.001,0.003-0.003v-0.167c0-0.002-0.001-0.003-0.003-0.003H0.199
				c-0.002,0-0.003,0.001-0.003,0.003V10.4C0.195,10.402,0.196,10.404,0.199,10.404z"/>
			<path fill="#FFFFFF" d="M0.322,10.23H0.3c-0.002,0-0.003,0.001-0.003,0.003v0.079l-0.026-0.079c0-0.001,0-0.002-0.001-0.002
				S0.268,10.23,0.267,10.23H0.25c-0.002,0-0.003,0.001-0.003,0.003V10.4c0,0.002,0.001,0.003,0.003,0.003h0.022
				c0.002,0,0.003-0.001,0.003-0.003v-0.082l0.026,0.082c0,0,0.001,0.001,0.002,0.002s0.002,0.001,0.002,0.001h0.016
				c0.002,0,0.003-0.001,0.003-0.003v-0.167C0.326,10.231,0.325,10.23,0.322,10.23z"/>
			<path fill="#FFFFFF" d="M0.405,10.23H0.352c-0.002,0-0.003,0.001-0.003,0.003V10.4c0,0.002,0.001,0.003,0.003,0.003h0.054
				c0.002,0,0.003-0.001,0.003-0.003v-0.022c0-0.002-0.001-0.003-0.003-0.003H0.377v-0.051h0.024c0.002,0,0.003-0.001,0.003-0.003
				v-0.022c0-0.002-0.001-0.003-0.003-0.003H0.377V10.26h0.028c0.002,0,0.003-0.001,0.003-0.003v-0.022
				C0.409,10.231,0.407,10.23,0.405,10.23z"/>
			<path fill="#FFFFFF" d="M0.522,10.23H0.501c-0.001,0-0.002,0-0.002,0.001c-0.001,0-0.001,0.001-0.002,0.002l-0.02,0.089
				l-0.02-0.089c0-0.001,0-0.001-0.001-0.002c0,0-0.001-0.001-0.002-0.001H0.433c-0.002,0-0.003,0.001-0.003,0.003V10.4
				c0,0.002,0.001,0.003,0.003,0.003h0.023c0.002,0,0.003-0.001,0.003-0.003v-0.078l0.017,0.063c0,0.001,0,0.001,0.001,0.001
				c0.001,0,0.001,0,0.001-0.001l0.017-0.063V10.4c0,0.002,0.001,0.003,0.003,0.003h0.023c0.002,0,0.003-0.001,0.003-0.003v-0.166
				C0.526,10.231,0.525,10.23,0.522,10.23z"/>
			<path fill="#FFFFFF" d="M0.603,10.234c0-0.002-0.001-0.003-0.004-0.003H0.566c-0.002,0-0.003,0.001-0.004,0.003L0.543,10.4
				c0,0.002,0,0.003,0.003,0.003h0.022c0.002,0,0.003-0.001,0.003-0.003l0.002-0.027H0.59L0.592,10.4
				c0,0.002,0.001,0.003,0.003,0.003h0.023c0.002,0,0.003-0.001,0.003-0.003L0.603,10.234z M0.577,10.346l0.005-0.067h0.001
				l0.005,0.067H0.577z"/>
			<path fill="#FFFFFF" d="M0.692,10.23H0.629c-0.002,0-0.003,0.001-0.003,0.003v0.022c0,0.002,0.001,0.003,0.003,0.003h0.018V10.4
				c0,0.001,0,0.001,0.001,0.002c0,0,0.001,0.001,0.002,0.001h0.022c0.002,0,0.003-0.001,0.003-0.003v-0.141h0.018
				c0.002,0,0.003-0.001,0.003-0.003v-0.022C0.696,10.231,0.695,10.23,0.692,10.23z"/>
			<path fill="#FFFFFF" d="M0.748,10.23H0.726c-0.002,0-0.003,0.001-0.003,0.003V10.4c0,0.002,0.001,0.003,0.003,0.003h0.022
				c0.002,0,0.003-0.001,0.003-0.003v-0.166C0.751,10.231,0.75,10.23,0.748,10.23z"/>
			<path fill="#FFFFFF" d="M0.788,10.396c0.003,0.003,0.006,0.005,0.01,0.007c0.003,0.001,0.008,0.002,0.012,0.002h0.009
				c0.004,0,0.008-0.001,0.012-0.002s0.007-0.004,0.01-0.007c0.003-0.002,0.005-0.006,0.007-0.01
				c0.001-0.003,0.002-0.008,0.002-0.012v-0.031c0-0.002-0.001-0.003-0.003-0.004l-0.022-0.003c-0.002-0.001-0.003,0-0.003,0.002
				v0.035c0,0.001,0,0.003-0.002,0.004c-0.001,0.001-0.002,0.002-0.004,0.002H0.813c-0.001,0-0.003,0-0.004-0.002
				c-0.001-0.001-0.002-0.002-0.002-0.004v-0.112c0-0.001,0.001-0.003,0.002-0.004c0.001-0.001,0.002-0.002,0.004-0.002h0.002
				c0.001,0,0.003,0.001,0.004,0.002c0.001,0.001,0.002,0.002,0.002,0.004v0.024c0,0.002,0.001,0.003,0.003,0.002l0.022-0.003
				c0.002,0,0.003-0.002,0.003-0.004v-0.02c0-0.004-0.001-0.008-0.002-0.012c-0.001-0.003-0.004-0.007-0.007-0.01
				c-0.002-0.002-0.006-0.005-0.01-0.006c-0.003-0.002-0.008-0.002-0.012-0.002H0.81c-0.004,0-0.008,0-0.012,0.002
				c-0.004,0.001-0.007,0.004-0.01,0.006c-0.003,0.003-0.005,0.006-0.007,0.01c-0.001,0.004-0.002,0.008-0.002,0.012v0.114
				c0,0.004,0.001,0.008,0.002,0.012S0.785,10.394,0.788,10.396z"/>
			<path fill="#FFFFFF" d="M0.018,9.541v0.941h0.92V9.541H0.018z M0.906,10.45H0.049V9.573h0.857V10.45z"/>
		</g>
		<g>
			<path fill="#FFFFFF" d="M0.733,9.777c-0.045-0.092-0.14-0.155-0.25-0.155c-0.154,0-0.279,0.125-0.279,0.279
				s0.125,0.279,0.279,0.279c0.107,0,0.2-0.061,0.246-0.149l-0.014-0.008c-0.044,0.083-0.131,0.14-0.232,0.14
				c-0.145,0-0.263-0.118-0.263-0.263c0-0.145,0.118-0.262,0.263-0.262c0.103,0,0.193,0.06,0.235,0.147L0.733,9.777z M0.709,9.79
				C0.669,9.706,0.583,9.648,0.483,9.648c-0.139,0-0.252,0.113-0.252,0.252c0,0.139,0.113,0.251,0.252,0.251
				c0.097,0,0.181-0.055,0.223-0.135l-0.105-0.06C0.579,10,0.535,10.031,0.483,10.031c-0.072,0-0.131-0.059-0.131-0.131
				c0-0.072,0.059-0.13,0.131-0.13c0.054,0,0.101,0.033,0.121,0.08L0.709,9.79z M0.438,10.043c0.029,0.009,0.062,0.009,0.092-0.001
				l0.002,0.008c-0.016,0.005-0.032,0.008-0.049,0.008c-0.016,0-0.032-0.002-0.047-0.007L0.438,10.043z M0.431,10.067
				c0.017,0.005,0.035,0.008,0.053,0.008l0,0c0.02,0,0.037-0.003,0.055-0.008l0.002,0.007c-0.018,0.006-0.037,0.009-0.057,0.009l0,0
				c-0.019,0-0.037-0.002-0.055-0.008L0.431,10.067z M0.423,10.09c0.04,0.013,0.083,0.012,0.123,0l0.002,0.008
				c-0.021,0.006-0.043,0.01-0.065,0.01c-0.021,0-0.043-0.003-0.063-0.009L0.423,10.09z M0.415,10.114
				c0.022,0.007,0.045,0.011,0.068,0.011l0,0c0.024,0,0.048-0.004,0.071-0.011l0.002,0.007c-0.023,0.008-0.048,0.012-0.073,0.012
				l0,0c-0.024,0-0.048-0.004-0.071-0.011L0.415,10.114z M0.53,9.758c-0.029-0.009-0.062-0.009-0.092,0L0.436,9.75
				c0.031-0.01,0.065-0.01,0.097,0L0.53,9.758z M0.538,9.734C0.521,9.729,0.503,9.726,0.483,9.726l0,0
				c-0.018,0-0.036,0.003-0.053,0.008L0.428,9.727c0.018-0.006,0.036-0.008,0.055-0.008l0,0c0.021,0,0.039,0.002,0.057,0.009
				L0.538,9.734z M0.546,9.711c-0.04-0.013-0.083-0.013-0.123,0L0.42,9.703c0.042-0.013,0.087-0.013,0.128,0L0.546,9.711z
				 M0.554,9.688C0.531,9.68,0.507,9.676,0.483,9.676l0,0c-0.023,0-0.046,0.003-0.068,0.01L0.413,9.679
				c0.023-0.007,0.046-0.011,0.071-0.011l0,0c0.025,0,0.049,0.004,0.073,0.012L0.554,9.688z"/>
			<path fill="#FFFFFF" d="M0.483,9.806c0.041,0,0.075,0.026,0.088,0.062l0.022-0.012C0.576,9.812,0.533,9.78,0.483,9.78
				c-0.066,0-0.12,0.054-0.12,0.12c0,0.066,0.054,0.12,0.12,0.12c0.047,0,0.089-0.028,0.108-0.068L0.569,9.939
				C0.554,9.972,0.521,9.995,0.483,9.995c-0.052,0-0.095-0.042-0.095-0.095C0.389,9.848,0.431,9.806,0.483,9.806z"/>
		</g>
	</g>
</g>
<g id="Layer_4">
	<g>
		<path fill="#FFFFFF" d="M0.506,9.706c-0.019,0-0.037,0.003-0.055,0.008l0.002,0.008C0.47,9.717,0.488,9.714,0.506,9.714l0,0
			c0.02,0,0.038,0.002,0.055,0.008l0.002-0.008C0.545,9.709,0.526,9.706,0.506,9.706L0.506,9.706z"/>
		<path fill="#FFFFFF" d="M0.506,9.657c-0.024,0-0.048,0.003-0.071,0.011l0.002,0.008c0.022-0.007,0.045-0.01,0.068-0.01l0,0
			c0.024,0,0.048,0.003,0.071,0.011l0.002-0.008C0.555,9.661,0.531,9.657,0.506,9.657L0.506,9.657z"/>
		<path fill="#FFFFFF" d="M0.458,9.738l0.002,0.008c0.03-0.009,0.062-0.009,0.092,0l0.002-0.008C0.524,9.729,0.49,9.729,0.458,9.738
			z"/>
		<path fill="#FFFFFF" d="M0.443,9.691l0.002,0.008c0.04-0.013,0.083-0.012,0.123,0l0.002-0.008
			C0.529,9.679,0.484,9.678,0.443,9.691z"/>
		<path fill="#FFFFFF" d="M0.555,10.039l-0.002-0.007c-0.029,0.009-0.062,0.01-0.091,0l-0.003,0.007
			c0.016,0.005,0.031,0.007,0.047,0.007C0.522,10.046,0.539,10.044,0.555,10.039z"/>
		<path fill="#FFFFFF" d="M0.571,10.086l-0.002-0.008c-0.04,0.013-0.083,0.013-0.123,0.001l-0.002,0.007
			c0.02,0.006,0.042,0.01,0.062,0.01C0.528,10.096,0.55,10.093,0.571,10.086z"/>
		<path fill="#FFFFFF" d="M0.506,10.071c0.021,0,0.039-0.003,0.057-0.009l-0.002-0.008c-0.017,0.006-0.035,0.008-0.055,0.008l0,0
			c-0.018,0-0.036-0.002-0.053-0.008l-0.002,0.007C0.468,10.068,0.487,10.071,0.506,10.071L0.506,10.071z"/>
		<path fill="#FFFFFF" d="M0.506,10.121c0.025,0,0.05-0.004,0.073-0.012l-0.002-0.008c-0.023,0.007-0.047,0.012-0.071,0.012l0,0
			c-0.023,0-0.046-0.004-0.068-0.011L0.435,10.11C0.458,10.117,0.481,10.121,0.506,10.121L0.506,10.121z"/>
		<path fill="#FFFFFF" d="M0.929,9.561H0.071v0.877h0.857V9.561z M0.506,9.61c0.109,0,0.205,0.063,0.25,0.155L0.741,9.773
			C0.699,9.686,0.609,9.626,0.506,9.626c-0.145,0-0.262,0.118-0.262,0.263c0,0.145,0.117,0.262,0.262,0.262
			c0.101,0,0.188-0.057,0.232-0.14l0.015,0.008c-0.047,0.088-0.14,0.148-0.247,0.148c-0.154,0-0.279-0.125-0.279-0.279
			C0.227,9.734,0.352,9.61,0.506,9.61z M0.506,9.794c-0.052,0-0.095,0.042-0.095,0.095s0.042,0.095,0.095,0.095
			c0.038,0,0.071-0.022,0.086-0.055L0.614,9.94c-0.019,0.041-0.061,0.068-0.108,0.068c-0.066,0-0.12-0.054-0.12-0.12
			c0-0.066,0.054-0.12,0.12-0.12c0.05,0,0.093,0.031,0.111,0.075L0.595,9.856C0.581,9.82,0.546,9.794,0.506,9.794z M0.517,9.889
			c0,0.006-0.005,0.011-0.011,0.011S0.495,9.895,0.495,9.889S0.5,9.878,0.506,9.878S0.517,9.883,0.517,9.889z M0.506,9.758
			c-0.072,0-0.131,0.059-0.131,0.131s0.059,0.131,0.131,0.131c0.051,0,0.096-0.03,0.118-0.074l0.105,0.06
			c-0.042,0.08-0.126,0.135-0.223,0.135c-0.139,0-0.252-0.113-0.252-0.251c0-0.139,0.113-0.252,0.252-0.252
			c0.099,0,0.185,0.058,0.227,0.142l-0.106,0.06C0.606,9.791,0.56,9.758,0.506,9.758z M0.199,10.268
			c0,0.002-0.001,0.004-0.003,0.004l-0.022,0.003c-0.002,0.001-0.003,0-0.003-0.002V10.25c0-0.001,0-0.003-0.002-0.004
			c-0.001-0.001-0.002-0.001-0.004-0.001H0.162c-0.001,0-0.003,0-0.004,0.001c-0.001,0.001-0.001,0.002-0.001,0.004v0.112
			c0,0.001,0,0.003,0.001,0.004c0.001,0.001,0.002,0.001,0.004,0.001h0.002c0.001,0,0.003,0,0.004-0.001
			c0.001-0.001,0.002-0.002,0.002-0.004v-0.035c0-0.002,0.001-0.003,0.003-0.002l0.022,0.003c0.002,0,0.003,0.002,0.003,0.005v0.031
			c0,0.004-0.001,0.008-0.002,0.012c-0.001,0.003-0.004,0.007-0.007,0.01c-0.002,0.002-0.006,0.004-0.01,0.006
			c-0.003,0.001-0.008,0.002-0.012,0.002H0.159c-0.004,0-0.008-0.001-0.012-0.002c-0.003-0.001-0.007-0.004-0.01-0.006
			c-0.002-0.003-0.005-0.006-0.007-0.01c-0.001-0.004-0.002-0.008-0.002-0.012v-0.114c0-0.004,0.001-0.008,0.002-0.012
			c0.002-0.004,0.004-0.007,0.007-0.01c0.003-0.003,0.006-0.005,0.01-0.007c0.004-0.001,0.008-0.002,0.012-0.002h0.009
			c0.004,0,0.008,0.001,0.012,0.002s0.007,0.004,0.01,0.007c0.003,0.002,0.005,0.006,0.007,0.01
			c0.001,0.003,0.002,0.008,0.002,0.012V10.268z M0.247,10.389c0,0.002-0.001,0.003-0.003,0.003H0.222
			c-0.002,0-0.003-0.001-0.003-0.003v-0.167c0-0.002,0.001-0.003,0.003-0.003h0.022c0.002,0,0.003,0.001,0.003,0.003V10.389z
			 M0.348,10.389c0,0.002-0.001,0.003-0.003,0.003H0.329c-0.001,0-0.002,0-0.003,0c-0.001-0.001-0.001-0.002-0.001-0.002
			l-0.026-0.082v0.082c0,0.002-0.001,0.003-0.003,0.003H0.273c-0.002,0-0.003-0.001-0.003-0.003v-0.167
			c0-0.002,0.001-0.003,0.003-0.003H0.29c0.001,0,0.002,0,0.002,0.001c0.001,0,0.002,0.001,0.002,0.002l0.026,0.08v-0.079
			c0-0.002,0.001-0.003,0.003-0.003h0.022c0.002,0,0.003,0.001,0.003,0.003V10.389z M0.431,10.244c0,0.002-0.001,0.003-0.003,0.003
			H0.399v0.036h0.024c0.002,0,0.003,0.001,0.003,0.003v0.022c0,0.002-0.001,0.003-0.003,0.003H0.399v0.051h0.028
			c0.002,0,0.003,0.001,0.003,0.003v0.022c0,0.002-0.001,0.003-0.003,0.003H0.374c-0.002,0-0.003-0.001-0.003-0.003v-0.166
			c0-0.002,0.001-0.003,0.003-0.003h0.054c0.002,0,0.003,0.001,0.003,0.003V10.244z M0.548,10.389c0,0.002-0.001,0.003-0.003,0.003
			H0.521c-0.002,0-0.003-0.001-0.003-0.003v-0.078l-0.017,0.063c0,0.001,0,0.001-0.001,0.001c-0.001,0-0.001,0-0.001-0.001
			l-0.017-0.063v0.078c0,0.002-0.001,0.003-0.003,0.003H0.456c-0.002,0-0.003-0.001-0.003-0.003v-0.166
			c0-0.003,0.001-0.003,0.003-0.003h0.021c0.001,0,0.002,0,0.003,0.001c0,0,0.001,0.001,0.001,0.002l0.02,0.089l0.02-0.089
			c0-0.001,0-0.001,0.001-0.002c0,0,0.001-0.001,0.002-0.001h0.021c0.002,0,0.003,0.001,0.003,0.003V10.389z M0.641,10.392H0.618
			c-0.002,0-0.003-0.001-0.003-0.003l-0.002-0.027H0.598l-0.002,0.027c0,0.002-0.001,0.003-0.004,0.003H0.569
			c-0.002,0-0.003-0.001-0.003-0.003l0.019-0.166c0-0.003,0.001-0.003,0.004-0.003h0.033c0.002,0,0.003,0.001,0.004,0.003
			l0.019,0.166C0.644,10.391,0.643,10.392,0.641,10.392z M0.718,10.244c0,0.002-0.001,0.003-0.003,0.003H0.697v0.141
			c0,0.002-0.001,0.003-0.003,0.003H0.672c-0.001,0-0.002,0-0.002,0c-0.001-0.001-0.001-0.002-0.001-0.002v-0.141H0.651
			c-0.003,0-0.003-0.001-0.003-0.003v-0.021c0-0.003,0.001-0.003,0.003-0.003h0.063c0.002,0,0.003,0.001,0.003,0.003V10.244
			L0.718,10.244z M0.774,10.389c0,0.002-0.001,0.003-0.003,0.003H0.749c-0.002,0-0.003-0.001-0.003-0.003v-0.167
			c0-0.002,0.001-0.003,0.003-0.003h0.022c0.002,0,0.003,0.001,0.003,0.003V10.389z M0.873,10.268c0,0.002-0.001,0.004-0.003,0.004
			l-0.022,0.003c-0.002,0.001-0.003,0-0.003-0.002V10.25c0-0.001,0-0.003-0.001-0.004c-0.001-0.001-0.003-0.001-0.004-0.001H0.835
			c-0.001,0-0.003,0-0.004,0.001C0.83,10.247,0.83,10.248,0.83,10.25v0.112c0,0.001,0,0.003,0.001,0.004
			c0.001,0.001,0.002,0.001,0.004,0.001h0.002c0.001,0,0.003,0,0.004-0.001c0.001-0.001,0.001-0.002,0.001-0.004v-0.035
			c0-0.002,0.001-0.003,0.003-0.002l0.022,0.003c0.002,0,0.003,0.002,0.003,0.005v0.031c0,0.004-0.001,0.008-0.002,0.012
			c-0.001,0.003-0.004,0.007-0.007,0.01c-0.002,0.002-0.006,0.004-0.01,0.006c-0.003,0.001-0.008,0.002-0.012,0.002h-0.01
			c-0.004,0-0.008-0.001-0.012-0.002s-0.007-0.004-0.01-0.006c-0.002-0.003-0.005-0.006-0.006-0.01
			c-0.002-0.004-0.003-0.008-0.003-0.012v-0.114c0-0.004,0.001-0.008,0.003-0.012c0.001-0.004,0.004-0.007,0.006-0.01
			c0.003-0.003,0.006-0.005,0.01-0.007c0.004-0.001,0.008-0.002,0.012-0.002h0.01c0.004,0,0.008,0.001,0.012,0.002
			s0.007,0.004,0.01,0.007c0.003,0.002,0.005,0.006,0.007,0.01c0.001,0.003,0.002,0.008,0.002,0.012V10.268z"/>
		<polygon fill="#FFFFFF" points="0.604,10.267 0.599,10.334 0.61,10.334 0.606,10.267 		"/>
		<path fill="#FFFFFF" d="M0,9.491v1.019h1V9.491H0z M0.96,10.471H0.04V9.529h0.92V10.471z"/>
	</g>
</g>
</svg>
