<?xml version="1.0" encoding="utf-8"?>
<!-- Generator: Adobe Illustrator 21.1.0, SVG Export Plug-In . SVG Version: 6.00 Build 0)  -->
<svg version="1.1" xmlns="http://www.w3.org/2000/svg" xmlns:xlink="http://www.w3.org/1999/xlink" x="0px" y="0px"
	 viewBox="0 0 328.2 334.2" style="enable-background:new 0 0 328.2 334.2;" xml:space="preserve">
<style type="text/css">
	.st0{display:none;fill:#FF0000;}
	.st1{display:none;fill:#231F20;}
	.st2{display:none;}
	.st3{display:inline;fill:#FFFFFF;}
	.st4{display:inline;}
	.st5{fill:#FFFFFF;}
</style>
<g id="Layer_3">
	<rect x="-45.6" y="-30" class="st0" width="466" height="412"/>
	<rect x="-7.4" y="3.8" class="st1" width="328.2" height="334.2"/>
</g>
<g id="Layer_1" class="st2">
	<path class="st3" d="M183,185.3c-10.4,0-20.8,0-31.2,0c0,0.4,0,0.9,0.1,1.3C162.4,189.8,172.8,189.9,183,185.3z"/>
	<path class="st3" d="M185.9,193.5c-12.1,0-24.3,0-36.5,0C155.2,198.5,178.9,198.5,185.9,193.5z"/>
	<path class="st3" d="M143.3,64c16.7-5,32.2-4.5,48.9,0.1C185.2,56.1,149.1,56,143.3,64z"/>
	<path class="st3" d="M146.7,70.7c6.8-0.7,13.6-1.9,20.3-1.8c7,0,14,1.3,21,2.1C185.5,65,157.1,64.1,146.7,70.7z"/>
	<path class="st3" d="M191.1,208.3c-15.6,3.8-31.2,4-47.6-0.6C148.9,215.4,182.9,215.6,191.1,208.3z"/>
	<path class="st3" d="M149.4,78.9c12.2-2.9,24.3-2.8,36.5-0.1C178.8,72.9,154.9,73,149.4,78.9z"/>
	<path class="st3" d="M188.1,200.2c-13.8,4.2-27.7,3.2-41.6,0.6C154.4,207.2,183,206.8,188.1,200.2z"/>
	<path class="st3" d="M152,86.1c10.3,0,20.6,0,31.3,0C176.4,81.3,156.6,81.5,152,86.1z"/>
	<path class="st3" d="M-1.6,0v340.5h331.5V0H-1.6z M319.3,328.9c-102.7,0-205.3,0-308,0c0-104,0-208,0-312c102.7,0,205.3,0,308,0
		C319.3,120.9,319.3,224.9,319.3,328.9z"/>
	<path class="st3" d="M199.7,265.6c-0.4,6.2-0.7,12.3-1.1,18.5c0.5,0.2,1,0.5,1.6,0.7c0.7-1,1.9-2,1.9-3c-0.2-5.4-0.8-10.8-1.2-16.3
		C200.5,265.6,200.1,265.6,199.7,265.6z"/>
	<path class="st3" d="M22.6,28.3c0,96.7,0,192.9,0,289.4c95.2,0,190.1,0,285.4,0c0-96.8,0-193.1,0-289.4
		C212.5,28.3,117.5,28.3,22.6,28.3z M56.7,303.9c-10.7,1.6-16.1-3.7-15.6-13.1c0.5-11.1,0.1-22.3,0.1-33.4c0-8.1,3.9-11.9,11.9-11.9
		c7.7,0,11.9,4.1,12,11.9c0.1,7.2-0.3,7.5-9.8,7.2c0-2.1,0.3-4.3-0.1-6.3c-0.3-1.4-1.5-2.6-2.3-3.9c-0.7,1.2-2,2.5-2.1,3.7
		c-0.2,9.1-0.1,18.3-0.1,27.4c0,2-0.3,4,0.1,6c0.2,1.4,1.3,2.6,2,3.8c0.8-1.4,2.2-2.7,2.3-4.1c0.4-3.3,0.1-6.6,0.1-9.7
		c0.7-0.2,0.9-0.4,1-0.3c3,1.3,8.3-2,8.8,4.3C65.8,297.3,63.2,302.9,56.7,303.9z M80.8,303.4c-3,0-5.8,0-9,0c0-18.9,0-37.8,0-57.1
		c3.2,0,5.9,0,9,0C80.8,265.4,80.8,284.2,80.8,303.4z M114.3,303c-7,1.4-7,1.4-9-4.9c-2-6.5-4.1-12.9-7-19.3c0,8,0,16,0,24.4
		c-3.4,0-6.3,0-9.6,0c0-18.9,0-37.8,0-56.6c6.9-1.5,7.2-1.3,9.2,5c2.1,6.4,4.2,12.8,6.3,19.2c0.3-0.1,0.7-0.1,1-0.2
		c0-8,0-16.1,0-24.4c3.2,0,5.9,0,9.1,0C114.3,265.3,114.3,284.2,114.3,303z M141.8,255.1c-3.2,0.2-6.3,0.3-9.7,0.5
		c0,3.8,0,7.4,0,11.1c2.9,0.6,6.5,0.5,8.5,2.2c1.3,1.1,0.2,4.9,0.2,7.8c-3,0.2-5.8,0.4-8.7,0.5c-0.1,1.3-0.4,2.4-0.4,3.6
		c0,4.1,0,8.3,0,12.9c3.5,0,6.6,0,10.1,0c0,3.3,0,6.2,0,10c-3,0-6.3,0-9.5,0c-3.1,0-6.3,0-9.7,0c0-19.3,0-38.2,0-57.6
		c6.6,0,12.7,0,19.3,0C141.8,249.1,141.8,251.9,141.8,255.1z M73.9,133.8c1.4-45.2,34.2-83,77.8-89.8c50.8-7.9,87.3,24,98.7,50.6
		c-1.2,0.7-2.4,1.5-4.1,2.5c-17.1-30.2-42.4-47.6-77.3-48.7c-25-0.8-46.7,8.2-64.3,26c-36,36.4-33.4,94.5,5.6,127.9
		c40.3,34.5,105.9,26.4,134.9-25.6c1.4,0.8,2.8,1.6,4.2,2.4c-14.8,30.7-54.9,57.6-102.1,47.6C104,217.6,72.6,177.8,73.9,133.8z
		 M157.2,105.9c-13,4.3-22,16.9-21.8,30.4c0.3,13.7,9.5,25.8,22.7,29.7c14.7,4.4,27.6-1.2,38.2-16.9c2.2,1.2,4.5,2.5,6.7,3.8
		c-6.4,16-25.3,25.6-43.3,22.2c-18.9-3.5-32.4-19.6-32.6-38.7c-0.2-19.5,12.9-35.6,32.1-39.7c18.5-3.9,37.3,5.9,45,24.1
		c-2.5,1.4-4.6,2.6-7.2,4c-4.3-9.2-10.6-15.8-20.2-18.9C170.3,103.6,163.7,103.7,157.2,105.9z M172.2,136.1c-2.5,1.5-4,3.1-5.2,2.8
		c-1.3-0.3-2.3-2.2-3.4-3.4c1.2-1.1,2.4-3,3.7-3.1C168.5,132.4,169.9,134.3,172.2,136.1z M167.9,92.3c-12.2-0.4-22.8,4-31.5,12.7
		c-18.2,18.1-17,47.1,2.4,63.9c17.3,15.1,50.3,16.2,68.1-13.9c11.5,6.5,23,13,34.5,19.6c-11.1,24.6-45.1,51.4-88.2,44.1
		c-40-6.8-69.2-40.6-70.1-81.1c-0.9-39.9,26.9-75.2,65.8-83.7c42.8-9.4,79.9,15.2,93.9,45.3c-11.5,6.4-23,12.9-34.9,19.6
		C199.4,102.5,186.4,92.9,167.9,92.3z M181.1,303.4c-3,0-5.9,0-9.4,0c0-7.9,0-15.8,0-23.7c-0.3,0-0.7-0.1-1-0.1
		c-1.5,5.7-3,11.4-4.5,17c-0.4,0.1-0.7,0.2-1.1,0.3c-1.6-5.7-3.2-11.4-4.8-17.1c-0.3,0-0.5,0-0.8,0c0,7.8,0,15.5,0,23.6
		c-3.5,0-6.4,0-9.7,0c0-19,0-37.8,0-56.7c7.7-2,8.6-1.5,10.4,6.2c1.7,7.2,3.3,14.5,4.9,21.7c0.3-0.1,0.7-0.2,1-0.2
		c1.6-7.1,3.2-14.3,4.8-21.4c1.7-7.8,1.7-7.8,10.2-6.5C181.1,265.3,181.1,284.2,181.1,303.4z M204.2,302.6c-1.7-1.5-1-5.5-1.4-8.7
		c-1.6,0-3,0-4.9,0c-0.4,3.1-0.7,6-1.1,9.4c-3.3,0-6.2,0-9.5,0c1.5-13.4,2.9-26.4,4.4-39.4c0.5-4.6,1.3-9.2,1.5-13.9
		c0.2-3.2,1.4-4.2,4.6-4.2c9,0,9.1-0.2,10.1,8.6c1.9,16.2,3.6,32.4,5.6,49.5C209.9,303.5,206,304.2,204.2,302.6z M237.8,255
		c-2,0.2-3.9,0.4-6.4,0.6c0,15.8,0,31.5,0,47.6c-3.4,0-6.3,0-9.7,0c0-15.7,0-31.4,0-47.4c-2.6-0.4-4.6-0.7-6.8-1c0-2.9,0-5.6,0-8.7
		c7.8,0,15.2,0,23,0C237.8,249.1,237.8,252,237.8,255z M247.5,303.1c0-18.8,0-37.7,0-56.9c1.3-0.1,1.9-0.2,2.6-0.3
		c6.6-0.2,6.6-0.2,6.6,6.3c0,14.5,0,29,0,43.5C256.7,304.5,256.7,304.5,247.5,303.1z M289.4,263.8c-3.3,0.4-5.9,0.8-9.3,1.3
		c0-2.8,0.3-5.3-0.1-7.7c-0.2-1.1-1.6-2-2.5-3c-0.8,1-2.2,2-2.2,3.1c-0.2,11.5-0.2,23,0,34.5c0,1.2,1.6,2.3,2.5,3.5
		c0.8-1.2,2.1-2.4,2.2-3.8c0.3-3.3,0.1-6.6,0.1-10.4c2.7,0.3,4.9,0.5,7.1,1c0.8,0.2,2,1.2,2,1.8c0,4.6,0.5,9.5-0.7,13.8
		c-1.4,5.4-6.4,7.2-14.1,6.2c-4.8-0.6-8.2-3.7-8.3-9.1c-0.3-13.3-0.4-26.6,0-39.9c0.2-6.3,5-9.7,11.8-9.4
		c7.3,0.3,11.3,3.8,11.4,10.4C289.5,258.3,289.4,260.8,289.4,263.8z"/>
	<g>
		<g class="st4">
			<path class="st5" d="M37.5,297.1c0.9,0.9,2,1.6,3.2,2.2c1.2,0.5,2.6,0.8,4,0.8h3.1c1.4,0,2.7-0.3,4-0.8c1.2-0.5,2.3-1.3,3.2-2.2
				c0.9-0.9,1.7-2,2.2-3.2c0.5-1.2,0.8-2.6,0.8-4v-10.1c0-0.8-0.4-1.2-1.1-1.5l-7.4-1c-0.7-0.2-1.1,0.1-1.1,0.8v11.4
				c0,0.5-0.2,1-0.6,1.4c-0.4,0.4-0.8,0.6-1.4,0.6h-0.6c-0.5,0-1-0.2-1.4-0.6c-0.4-0.4-0.6-0.8-0.6-1.4v-36.7c0-0.5,0.2-1,0.6-1.4
				c0.4-0.4,0.8-0.6,1.4-0.6h0.6c0.5,0,1,0.2,1.4,0.6c0.4,0.4,0.6,0.8,0.6,1.4v7.9c0,0.8,0.4,1,1.1,0.8l7.4-1.1
				c0.7-0.2,1.1-0.7,1.1-1.5v-6.5c0-1.4-0.3-2.7-0.8-4c-0.5-1.2-1.3-2.3-2.2-3.2c-0.9-0.9-2-1.7-3.2-2.2c-1.2-0.5-2.6-0.8-4-0.8
				h-3.1c-1.4,0-2.7,0.3-4,0.8c-1.2,0.5-2.3,1.3-3.2,2.2c-0.9,0.9-1.7,2-2.2,3.2c-0.5,1.2-0.8,2.6-0.8,4v37.5c0,1.4,0.3,2.7,0.8,4
				C35.8,295.1,36.6,296.2,37.5,297.1z"/>
			<path class="st5" d="M65.2,299.6h7.2c0.8,0,1.1-0.4,1.1-1.1v-54.6c0-0.8-0.4-1.1-1.1-1.1h-7.2c-0.8,0-1.1,0.4-1.1,1.1v54.6
				C64.1,299.2,64.5,299.6,65.2,299.6z"/>
			<path class="st5" d="M105.8,242.7h-7.2c-0.8,0-1.1,0.4-1.1,1.1v26L89,243.8c-0.1-0.3-0.3-0.5-0.6-0.7c-0.3-0.2-0.6-0.3-0.9-0.3
				H82c-0.8,0-1.1,0.4-1.1,1.1v54.6c0,0.8,0.4,1.1,1.1,1.1h7.2c0.8,0,1.1-0.4,1.1-1.1v-26.8l8.6,26.9c0.1,0.3,0.3,0.5,0.6,0.7
				c0.3,0.2,0.6,0.3,0.9,0.3h5.2c0.8,0,1.1-0.4,1.1-1.1v-54.6C106.9,243.1,106.5,242.7,105.8,242.7z"/>
			<path class="st5" d="M133,242.7h-17.6c-0.8,0-1.1,0.4-1.1,1.1v54.6c0,0.8,0.4,1.1,1.1,1.1H133c0.8,0,1.1-0.4,1.1-1.1v-7.2
				c0-0.8-0.4-1.1-1.1-1.1h-9.3v-16.6h8c0.8,0,1.1-0.4,1.1-1.1v-7.2c0-0.8-0.4-1.1-1.1-1.1h-8v-11.7h9.3c0.8,0,1.1-0.4,1.1-1.1v-7.2
				C134.1,243.1,133.7,242.7,133,242.7z"/>
			<path class="st5" d="M171.5,242.7h-6.9c-0.3,0-0.6,0.1-0.9,0.4c-0.2,0.2-0.4,0.5-0.5,0.8l-6.4,29.1l-6.4-29.1
				c-0.1-0.3-0.3-0.5-0.5-0.8c-0.2-0.2-0.5-0.4-0.9-0.4h-6.9c-0.8,0-1.1,0.4-1.1,1.1v54.6c0,0.8,0.4,1.1,1.1,1.1h7.8
				c0.8,0,1.1-0.4,1.1-1.1v-25.7l5.4,20.9c0.1,0.3,0.2,0.4,0.4,0.4c0.2,0,0.3-0.1,0.4-0.4l5.4-20.9v25.7c0,0.8,0.4,1.1,1.1,1.1h7.8
				c0.7,0,1.1-0.4,1.1-1.1v-54.6C172.6,243.1,172.3,242.7,171.5,242.7z"/>
			<path class="st5" d="M197.8,243.9c-0.1-0.8-0.5-1.1-1.3-1.1h-10.7c-0.8,0-1.2,0.4-1.3,1.1l-6.1,54.6c-0.1,0.8,0.2,1.1,1,1.1h7.4
				c0.7,0,1.1-0.4,1.2-1.1l0.6-8.8h5l0.6,8.8c0.1,0.8,0.5,1.1,1.2,1.1h7.4c0.8,0,1.1-0.4,1-1.1L197.8,243.9z M189.3,280.6l1.5-22
				h0.6l1.5,22H189.3z"/>
			<path class="st5" d="M227.3,242.7h-20.9c-0.8,0-1.1,0.4-1.1,1.1v7.2c0,0.8,0.4,1.1,1.1,1.1h5.7v46.2c0,0.3,0.1,0.6,0.4,0.8
				c0.2,0.2,0.5,0.3,0.8,0.3h7.2c0.8,0,1.1-0.4,1.1-1.1v-46.2h5.8c0.8,0,1.1-0.4,1.1-1.1v-7.2C228.4,243.1,228.1,242.7,227.3,242.7z
				"/>
			<path class="st5" d="M245.5,242.7h-7.2c-0.8,0-1.1,0.4-1.1,1.1v54.6c0,0.8,0.4,1.1,1.1,1.1h7.2c0.8,0,1.1-0.4,1.1-1.1v-54.6
				C246.7,243.1,246.3,242.7,245.5,242.7z"/>
			<path class="st5" d="M258.5,297.1c0.9,0.9,2,1.6,3.2,2.2c1.2,0.5,2.6,0.8,4,0.8h3.1c1.4,0,2.7-0.3,4-0.8c1.2-0.5,2.3-1.3,3.2-2.2
				c0.9-0.9,1.6-2,2.2-3.2c0.5-1.2,0.8-2.6,0.8-4v-10.1c0-0.8-0.4-1.2-1.1-1.5l-7.4-1c-0.7-0.2-1.1,0.1-1.1,0.8v11.4
				c0,0.5-0.2,1-0.6,1.4c-0.4,0.4-0.8,0.6-1.4,0.6h-0.6c-0.5,0-1-0.2-1.4-0.6c-0.4-0.4-0.6-0.8-0.6-1.4v-36.7c0-0.5,0.2-1,0.6-1.4
				c0.4-0.4,0.8-0.6,1.4-0.6h0.6c0.5,0,1,0.2,1.4,0.6c0.4,0.4,0.6,0.8,0.6,1.4v7.9c0,0.8,0.3,1,1.1,0.8l7.4-1.1
				c0.7-0.2,1.1-0.7,1.1-1.5v-6.5c0-1.4-0.3-2.7-0.8-4c-0.5-1.2-1.3-2.3-2.2-3.2c-0.9-0.9-2-1.7-3.2-2.2c-1.2-0.5-2.6-0.8-4-0.8
				h-3.1c-1.4,0-2.7,0.3-4,0.8c-1.3,0.5-2.3,1.3-3.2,2.2c-0.9,0.9-1.7,2-2.2,3.2c-0.5,1.2-0.8,2.6-0.8,4v37.5c0,1.4,0.3,2.7,0.8,4
				C256.8,295.1,257.5,296.2,258.5,297.1z"/>
			<path class="st5" d="M5.7,16.4v309h302v-309H5.7z M297.4,314.8H16V26.9h281.4V314.8z"/>
		</g>
		<circle class="st3" cx="158.6" cy="134.4" r="3.5"/>
		<g class="st4">
			<path class="st5" d="M158.6,103.3c13.3,0,24.7,8.5,29.1,20.3l7.3-4.1c-5.9-14.3-20-24.5-36.4-24.5c-21.7,0-39.4,17.7-39.4,39.4
				c0,21.7,17.7,39.4,39.4,39.4c15.6,0,29.2-9.2,35.5-22.4l-7.3-4.1c-4.9,10.7-15.7,18.2-28.3,18.2c-17.1,0-31.1-13.9-31.1-31.1
				C127.5,117.2,141.4,103.3,158.6,103.3z"/>
		</g>
		<g class="st4">
			<path class="st5" d="M37.5,297.1c0.9,0.9,2,1.6,3.2,2.2c1.2,0.5,2.6,0.8,4,0.8h3.1c1.4,0,2.7-0.3,4-0.8c1.2-0.5,2.3-1.3,3.2-2.2
				c0.9-0.9,1.7-2,2.2-3.2c0.5-1.2,0.8-2.6,0.8-4v-10.1c0-0.8-0.4-1.2-1.1-1.5l-7.4-1c-0.7-0.2-1.1,0.1-1.1,0.8v11.4
				c0,0.5-0.2,1-0.6,1.4c-0.4,0.4-0.8,0.6-1.4,0.6h-0.6c-0.5,0-1-0.2-1.4-0.6c-0.4-0.4-0.6-0.8-0.6-1.4v-36.7c0-0.5,0.2-1,0.6-1.4
				c0.4-0.4,0.8-0.6,1.4-0.6h0.6c0.5,0,1,0.2,1.4,0.6c0.4,0.4,0.6,0.8,0.6,1.4v7.9c0,0.8,0.4,1,1.1,0.8l7.4-1.1
				c0.7-0.2,1.1-0.7,1.1-1.5v-6.5c0-1.4-0.3-2.7-0.8-4c-0.5-1.2-1.3-2.3-2.2-3.2c-0.9-0.9-2-1.7-3.2-2.2c-1.2-0.5-2.6-0.8-4-0.8
				h-3.1c-1.4,0-2.7,0.3-4,0.8c-1.2,0.5-2.3,1.3-3.2,2.2c-0.9,0.9-1.7,2-2.2,3.2c-0.5,1.2-0.8,2.6-0.8,4v37.5c0,1.4,0.3,2.7,0.8,4
				C35.8,295.1,36.6,296.2,37.5,297.1z"/>
			<path class="st5" d="M65.2,299.6h7.2c0.8,0,1.1-0.4,1.1-1.1v-54.6c0-0.8-0.4-1.1-1.1-1.1h-7.2c-0.8,0-1.1,0.4-1.1,1.1v54.6
				C64.1,299.2,64.5,299.6,65.2,299.6z"/>
			<path class="st5" d="M105.8,242.7h-7.2c-0.8,0-1.1,0.4-1.1,1.1v26L89,243.8c-0.1-0.3-0.3-0.5-0.6-0.7c-0.3-0.2-0.6-0.3-0.9-0.3
				H82c-0.8,0-1.1,0.4-1.1,1.1v54.6c0,0.8,0.4,1.1,1.1,1.1h7.2c0.8,0,1.1-0.4,1.1-1.1v-26.8l8.6,26.9c0.1,0.3,0.3,0.5,0.6,0.7
				c0.3,0.2,0.6,0.3,0.9,0.3h5.2c0.8,0,1.1-0.4,1.1-1.1v-54.6C106.9,243.1,106.5,242.7,105.8,242.7z"/>
			<path class="st5" d="M133,242.7h-17.6c-0.8,0-1.1,0.4-1.1,1.1v54.6c0,0.8,0.4,1.1,1.1,1.1H133c0.8,0,1.1-0.4,1.1-1.1v-7.2
				c0-0.8-0.4-1.1-1.1-1.1h-9.3v-16.6h8c0.8,0,1.1-0.4,1.1-1.1v-7.2c0-0.8-0.4-1.1-1.1-1.1h-8v-11.7h9.3c0.8,0,1.1-0.4,1.1-1.1v-7.2
				C134.1,243.1,133.7,242.7,133,242.7z"/>
			<path class="st5" d="M171.5,242.7h-6.9c-0.3,0-0.6,0.1-0.9,0.4c-0.2,0.2-0.4,0.5-0.5,0.8l-6.4,29.1l-6.4-29.1
				c-0.1-0.3-0.3-0.5-0.5-0.8c-0.2-0.2-0.5-0.4-0.9-0.4h-6.9c-0.8,0-1.1,0.4-1.1,1.1v54.6c0,0.8,0.4,1.1,1.1,1.1h7.8
				c0.8,0,1.1-0.4,1.1-1.1v-25.7l5.4,20.9c0.1,0.3,0.2,0.4,0.4,0.4c0.2,0,0.3-0.1,0.4-0.4l5.4-20.9v25.7c0,0.8,0.4,1.1,1.1,1.1h7.8
				c0.7,0,1.1-0.4,1.1-1.1v-54.6C172.6,243.1,172.3,242.7,171.5,242.7z"/>
			<path class="st5" d="M197.8,243.9c-0.1-0.8-0.5-1.1-1.3-1.1h-10.7c-0.8,0-1.2,0.4-1.3,1.1l-6.1,54.6c-0.1,0.8,0.2,1.1,1,1.1h7.4
				c0.7,0,1.1-0.4,1.2-1.1l0.6-8.8h5l0.6,8.8c0.1,0.8,0.5,1.1,1.2,1.1h7.4c0.8,0,1.1-0.4,1-1.1L197.8,243.9z M189.3,280.6l1.5-22
				h0.6l1.5,22H189.3z"/>
			<path class="st5" d="M227.3,242.7h-20.9c-0.8,0-1.1,0.4-1.1,1.1v7.2c0,0.8,0.4,1.1,1.1,1.1h5.7v46.2c0,0.3,0.1,0.6,0.4,0.8
				c0.2,0.2,0.5,0.3,0.8,0.3h7.2c0.8,0,1.1-0.4,1.1-1.1v-46.2h5.8c0.8,0,1.1-0.4,1.1-1.1v-7.2C228.4,243.1,228.1,242.7,227.3,242.7z
				"/>
			<path class="st5" d="M245.5,242.7h-7.2c-0.8,0-1.1,0.4-1.1,1.1v54.6c0,0.8,0.4,1.1,1.1,1.1h7.2c0.8,0,1.1-0.4,1.1-1.1v-54.6
				C246.7,243.1,246.3,242.7,245.5,242.7z"/>
			<path class="st5" d="M258.5,297.1c0.9,0.9,2,1.6,3.2,2.2c1.2,0.5,2.6,0.8,4,0.8h3.1c1.4,0,2.7-0.3,4-0.8c1.2-0.5,2.3-1.3,3.2-2.2
				c0.9-0.9,1.6-2,2.2-3.2c0.5-1.2,0.8-2.6,0.8-4v-10.1c0-0.8-0.4-1.2-1.1-1.5l-7.4-1c-0.7-0.2-1.1,0.1-1.1,0.8v11.4
				c0,0.5-0.2,1-0.6,1.4c-0.4,0.4-0.8,0.6-1.4,0.6h-0.6c-0.5,0-1-0.2-1.4-0.6c-0.4-0.4-0.6-0.8-0.6-1.4v-36.7c0-0.5,0.2-1,0.6-1.4
				c0.4-0.4,0.8-0.6,1.4-0.6h0.6c0.5,0,1,0.2,1.4,0.6c0.4,0.4,0.6,0.8,0.6,1.4v7.9c0,0.8,0.3,1,1.1,0.8l7.4-1.1
				c0.7-0.2,1.1-0.7,1.1-1.5v-6.5c0-1.4-0.3-2.7-0.8-4c-0.5-1.2-1.3-2.3-2.2-3.2c-0.9-0.9-2-1.7-3.2-2.2c-1.2-0.5-2.6-0.8-4-0.8
				h-3.1c-1.4,0-2.7,0.3-4,0.8c-1.3,0.5-2.3,1.3-3.2,2.2c-0.9,0.9-1.7,2-2.2,3.2c-0.5,1.2-0.8,2.6-0.8,4v37.5c0,1.4,0.3,2.7,0.8,4
				C256.8,295.1,257.5,296.2,258.5,297.1z"/>
			<path class="st5" d="M5.7,16.4v309h302v-309H5.7z M297.4,314.8H16V26.9h281.4V314.8z"/>
		</g>
		<g class="st4">
			<path class="st5" d="M240.6,93.8c-15-30.2-46.1-50.9-82-50.9c-50.5,0-91.5,41-91.5,91.5c0,50.5,41,91.5,91.5,91.5
				c35.1,0,65.6-19.8,80.9-48.8l-4.7-2.7c-14.4,27.3-43.2,46-76.2,46c-47.5,0-86.1-38.6-86.1-86.1c0-47.5,38.6-86.1,86.1-86.1
				c33.9,0,63.3,19.7,77.3,48.2L240.6,93.8z M232.9,98.2c-13.4-27.5-41.7-46.4-74.3-46.4C113,51.7,76,88.8,76,134.4
				c0,45.6,37.1,82.6,82.6,82.6c31.7,0,59.3-18,73.2-44.3L197.1,153c-7,14.3-21.6,24.2-38.6,24.2c-23.6,0-42.9-19.2-42.9-42.9
				c0-23.6,19.2-42.9,42.9-42.9c17.7,0,33,10.8,39.5,26.2L232.9,98.2z M143.9,181.3c9.7,3,20.4,2.9,30.1-0.2l0.8,2.5
				c-5.2,1.7-10.6,2.5-16.1,2.5c-5.3,0-10.5-0.8-15.5-2.3L143.9,181.3z M141.3,189.1c5.6,1.7,11.4,2.6,17.3,2.6c0,0,0,0,0,0
				c6.5,0,12.3-0.9,18-2.7l0.8,2.5c-5.9,1.9-12,2.9-18.8,2.9c0,0,0,0,0,0c-6.2,0-12.2-0.9-18.1-2.7L141.3,189.1z M138.7,196.8
				c13,4.1,27.4,4,40.4-0.2l0.8,2.5c-6.9,2.2-14,3.3-21.3,3.3c-7,0-14-1.1-20.6-3.1L138.7,196.8z M136.1,204.5
				c7.2,2.3,14.8,3.4,22.4,3.4c0,0,0,0,0,0c7.9,0,15.7-1.2,23.2-3.7l0.8,2.5c-7.7,2.5-15.8,3.8-24,3.8c0,0,0,0,0,0
				c-7.9,0-15.7-1.2-23.2-3.6L136.1,204.5z M173.9,87.7c-9.7-3.1-20.4-3.2-30.1-0.2l-0.8-2.5c10.2-3.1,21.4-3.1,31.6,0.2L173.9,87.7
				z M176.6,79.9c-5.6-1.8-11.5-2.7-18-2.7c0,0,0,0,0,0c-5.9,0-11.7,0.9-17.3,2.6l-0.8-2.5c5.8-1.8,11.9-2.7,18.1-2.7c0,0,0,0,0,0
				c6.7,0,12.9,0.9,18.8,2.9L176.6,79.9z M179.1,72.2c-13-4.2-27.3-4.3-40.4-0.2l-0.8-2.5c13.5-4.2,28.4-4.2,42,0.2L179.1,72.2z
				 M181.8,64.5c-7.5-2.4-15.3-3.7-23.2-3.7c0,0,0,0,0,0c-7.7,0-15.2,1.2-22.4,3.4l-0.8-2.5c7.5-2.4,15.3-3.6,23.2-3.6c0,0,0,0,0,0
				c8.2,0,16.3,1.3,24,3.8L181.8,64.5z"/>
			<path class="st5" d="M158.6,103.3c13.3,0,24.7,8.5,29.1,20.3l7.3-4.1c-5.9-14.3-20-24.5-36.4-24.5c-21.7,0-39.4,17.7-39.4,39.4
				c0,21.7,17.7,39.4,39.4,39.4c15.6,0,29.2-9.2,35.5-22.4l-7.3-4.1c-4.9,10.7-15.7,18.2-28.3,18.2c-17.1,0-31.1-13.9-31.1-31.1
				C127.5,117.2,141.4,103.3,158.6,103.3z"/>
		</g>
	</g>
</g>
<g id="Layer_4">
	<g>
		<path class="st5" d="M166,70.7c-6.2,0-12.2,0.9-18.1,2.7l0.8,2.5c5.6-1.7,11.4-2.6,17.3-2.6c0,0,0,0,0,0c6.5,0,12.3,0.9,18,2.7
			l0.8-2.5C178.8,71.7,172.7,70.7,166,70.7C166,70.7,166,70.7,166,70.7z"/>
		<path class="st5" d="M166,54.4c-7.9,0-15.7,1.2-23.2,3.6l0.8,2.5c7.2-2.3,14.8-3.4,22.4-3.4c0,0,0,0,0,0c7.9,0,15.7,1.2,23.2,3.7
			l0.8-2.5C182.2,55.7,174.2,54.4,166,54.4C166,54.4,166,54.4,166,54.4z"/>
		<path class="st5" d="M150.5,81.2l0.8,2.5c9.7-3,20.4-2.9,30.1,0.2l0.8-2.5C171.9,78.1,160.7,78.1,150.5,81.2z"/>
		<path class="st5" d="M145.3,65.7l0.8,2.5c13-4.1,27.4-4,40.4,0.2l0.8-2.5C173.8,61.6,158.9,61.5,145.3,65.7z"/>
		<path class="st5" d="M182.1,179.8l-0.8-2.5c-9.7,3.1-20.4,3.2-30.1,0.2l-0.8,2.5c5,1.5,10.2,2.3,15.5,2.3
			C171.5,182.3,176.9,181.5,182.1,179.8z"/>
		<path class="st5" d="M187.3,195.3l-0.8-2.5c-13,4.2-27.3,4.3-40.4,0.2l-0.8,2.5c6.7,2.1,13.6,3.1,20.6,3.1
			C173.2,198.6,180.4,197.5,187.3,195.3z"/>
		<path class="st5" d="M166,190.5c6.7,0,12.9-0.9,18.8-2.9l-0.8-2.5c-5.6,1.8-11.5,2.7-18,2.7c0,0,0,0,0,0c-5.9,0-11.7-0.9-17.3-2.6
			l-0.8,2.5C153.7,189.6,159.8,190.5,166,190.5C166,190.5,166,190.5,166,190.5z"/>
		<path class="st5" d="M166,206.8c8.2,0,16.3-1.3,24-3.8l-0.8-2.5c-7.5,2.4-15.3,3.7-23.2,3.7c0,0,0,0,0,0c-7.7,0-15.2-1.2-22.4-3.4
			l-0.8,2.5C150.2,205.6,158,206.8,166,206.8C166,206.8,166,206.8,166,206.8z"/>
		<path class="st5" d="M304.8,23.1H23.4V311h281.4V23.1z M166,39c36,0,67.1,20.8,82,50.9l-4.7,2.7c-14-28.5-43.4-48.2-77.3-48.2
			c-47.5,0-86.1,38.6-86.1,86.1c0,47.5,38.6,86.1,86.1,86.1c33,0,61.7-18.7,76.2-46l4.7,2.7c-15.4,29-45.8,48.8-80.9,48.8
			c-50.5,0-91.5-41-91.5-91.5C74.4,80,115.4,39,166,39z M166,99.5c-17.1,0-31.1,13.9-31.1,31.1c0,17.1,13.9,31.1,31.1,31.1
			c12.6,0,23.4-7.5,28.3-18.2l7.3,4.1c-6.3,13.2-19.9,22.4-35.5,22.4c-21.7,0-39.4-17.7-39.4-39.4c0-21.7,17.7-39.4,39.4-39.4
			c16.4,0,30.5,10.1,36.4,24.5l-7.3,4.1C190.7,107.9,179.3,99.5,166,99.5z M169.5,130.6c0,1.9-1.6,3.5-3.5,3.5
			c-1.9,0-3.5-1.6-3.5-3.5c0-1.9,1.6-3.5,3.5-3.5C167.9,127.1,169.5,128.6,169.5,130.6z M166,87.7c-23.6,0-42.9,19.2-42.9,42.9
			c0,23.6,19.2,42.9,42.9,42.9c16.9,0,31.6-9.9,38.6-24.2l34.6,19.7c-13.8,26.3-41.4,44.3-73.2,44.3c-45.6,0-82.6-37.1-82.6-82.6
			c0-45.6,37.1-82.6,82.6-82.6c32.6,0,60.8,19,74.3,46.4l-34.8,19.6C198.9,98.5,183.7,87.7,166,87.7z M65.4,255.1
			c0,0.8-0.4,1.2-1.1,1.5l-7.4,1.1c-0.7,0.2-1.1,0-1.1-0.8V249c0-0.5-0.2-1-0.6-1.4c-0.4-0.4-0.8-0.6-1.4-0.6h-0.6
			c-0.5,0-1,0.2-1.4,0.6c-0.4,0.4-0.6,0.8-0.6,1.4v36.7c0,0.5,0.2,1,0.6,1.4c0.4,0.4,0.8,0.6,1.4,0.6h0.6c0.5,0,1-0.2,1.4-0.6
			c0.4-0.4,0.6-0.8,0.6-1.4v-11.4c0-0.8,0.4-1,1.1-0.8l7.4,1c0.7,0.2,1.1,0.7,1.1,1.5v10.1c0,1.4-0.3,2.7-0.8,4
			c-0.5,1.2-1.3,2.3-2.2,3.2c-0.9,0.9-2,1.6-3.2,2.2c-1.2,0.5-2.6,0.8-4,0.8h-3.1c-1.4,0-2.7-0.3-4-0.8c-1.2-0.5-2.3-1.3-3.2-2.2
			c-0.9-0.9-1.7-2-2.2-3.2c-0.5-1.2-0.8-2.6-0.8-4v-37.5c0-1.4,0.3-2.7,0.8-4c0.5-1.2,1.3-2.3,2.2-3.2c0.9-0.9,2-1.7,3.2-2.2
			c1.2-0.5,2.6-0.8,4-0.8h3.1c1.4,0,2.7,0.3,4,0.8c1.2,0.5,2.3,1.3,3.2,2.2c0.9,0.9,1.7,2,2.2,3.2c0.5,1.2,0.8,2.6,0.8,4V255.1z
			 M81,294.6c0,0.8-0.4,1.1-1.1,1.1h-7.2c-0.8,0-1.1-0.4-1.1-1.1v-54.6c0-0.8,0.4-1.1,1.1-1.1h7.2c0.8,0,1.1,0.4,1.1,1.1V294.6z
			 M114.3,294.6c0,0.8-0.4,1.1-1.1,1.1h-5.2c-0.3,0-0.6-0.1-0.9-0.3c-0.3-0.2-0.5-0.5-0.6-0.7l-8.6-26.9v26.8c0,0.8-0.4,1.1-1.1,1.1
			h-7.2c-0.8,0-1.1-0.4-1.1-1.1v-54.6c0-0.8,0.4-1.1,1.1-1.1h5.4c0.3,0,0.6,0.1,0.9,0.3c0.3,0.2,0.5,0.5,0.6,0.7l8.4,26.1v-26
			c0-0.8,0.4-1.1,1.1-1.1h7.2c0.8,0,1.1,0.4,1.1,1.1V294.6z M141.5,247.3c0,0.8-0.4,1.1-1.1,1.1h-9.3v11.7h8c0.8,0,1.1,0.4,1.1,1.1
			v7.2c0,0.8-0.4,1.1-1.1,1.1h-8v16.6h9.3c0.8,0,1.1,0.4,1.1,1.1v7.2c0,0.8-0.4,1.1-1.1,1.1h-17.6c-0.8,0-1.1-0.4-1.1-1.1v-54.6
			c0-0.8,0.4-1.1,1.1-1.1h17.6c0.8,0,1.1,0.4,1.1,1.1V247.3z M180,294.6c0,0.8-0.4,1.1-1.1,1.1h-7.8c-0.8,0-1.1-0.4-1.1-1.1V269
			l-5.4,20.9c-0.1,0.3-0.2,0.4-0.4,0.4c-0.2,0-0.3-0.1-0.4-0.4l-5.4-20.9v25.7c0,0.8-0.4,1.1-1.1,1.1h-7.8c-0.8,0-1.1-0.4-1.1-1.1
			v-54.6c0-0.8,0.4-1.1,1.1-1.1h6.9c0.3,0,0.6,0.1,0.9,0.4c0.2,0.2,0.4,0.5,0.5,0.8l6.4,29.1l6.4-29.1c0.1-0.3,0.3-0.5,0.5-0.8
			c0.2-0.2,0.5-0.4,0.9-0.4h6.9c0.7,0,1.1,0.4,1.1,1.1V294.6z M210.3,295.8h-7.4c-0.7,0-1.1-0.4-1.2-1.1l-0.6-8.8h-5l-0.6,8.8
			c-0.1,0.8-0.5,1.1-1.2,1.1h-7.4c-0.8,0-1.1-0.4-1-1.1l6.1-54.6c0.1-0.8,0.5-1.1,1.3-1.1h10.7c0.8,0,1.2,0.4,1.3,1.1l6.1,54.6
			C211.4,295.4,211.1,295.8,210.3,295.8z M235.8,247.3c0,0.8-0.4,1.1-1.1,1.1h-5.8v46.2c0,0.8-0.4,1.1-1.1,1.1h-7.2
			c-0.3,0-0.5-0.1-0.8-0.3c-0.2-0.2-0.4-0.5-0.4-0.8v-46.2h-5.7c-0.8,0-1.1-0.4-1.1-1.1v-7.2c0-0.8,0.4-1.1,1.1-1.1h20.9
			c0.8,0,1.1,0.4,1.1,1.1V247.3z M254,294.6c0,0.8-0.4,1.1-1.1,1.1h-7.2c-0.8,0-1.1-0.4-1.1-1.1v-54.6c0-0.8,0.4-1.1,1.1-1.1h7.2
			c0.8,0,1.1,0.4,1.1,1.1V294.6z M286.4,255.1c0,0.8-0.4,1.2-1.1,1.5l-7.4,1.1c-0.7,0.2-1.1,0-1.1-0.8V249c0-0.5-0.2-1-0.6-1.4
			c-0.4-0.4-0.8-0.6-1.4-0.6h-0.6c-0.5,0-1,0.2-1.4,0.6c-0.4,0.4-0.6,0.8-0.6,1.4v36.7c0,0.5,0.2,1,0.6,1.4c0.4,0.4,0.8,0.6,1.4,0.6
			h0.6c0.5,0,1-0.2,1.4-0.6c0.4-0.4,0.6-0.8,0.6-1.4v-11.4c0-0.8,0.3-1,1.1-0.8l7.4,1c0.7,0.2,1.1,0.7,1.1,1.5v10.1
			c0,1.4-0.3,2.7-0.8,4c-0.5,1.2-1.3,2.3-2.2,3.2c-0.9,0.9-2,1.6-3.2,2.2c-1.2,0.5-2.6,0.8-4,0.8h-3.1c-1.4,0-2.7-0.3-4-0.8
			c-1.3-0.5-2.3-1.3-3.2-2.2c-0.9-0.9-1.7-2-2.2-3.2c-0.5-1.2-0.8-2.6-0.8-4v-37.5c0-1.4,0.3-2.7,0.8-4c0.5-1.2,1.3-2.3,2.2-3.2
			c0.9-0.9,2-1.7,3.2-2.2c1.2-0.5,2.6-0.8,4-0.8h3.1c1.4,0,2.7,0.3,4,0.8c1.2,0.5,2.3,1.3,3.2,2.2c0.9,0.9,1.6,2,2.2,3.2
			c0.5,1.2,0.8,2.6,0.8,4V255.1z"/>
		<polygon class="st5" points="198.2,254.8 196.7,276.8 200.4,276.8 198.9,254.8 		"/>
		<path class="st5" d="M0,0v334.2h328.2V0H0z M315.1,321.6h-302v-309h302V321.6z"/>
	</g>
</g>
</svg>
