<svg version="1.1" id="Layer_1" xmlns="http://www.w3.org/2000/svg" xmlns:xlink="http://www.w3.org/1999/xlink" x="0px" y="0px"
	 width="331.483px" height="340.482px" viewBox="0 0 331.483 340.482" enable-background="new 0 0 331.483 340.482"
	 xml:space="preserve">
<path fill-rule="evenodd" clip-rule="evenodd" fill="#FFFFFF" d="M184.629,185.292c-10.389,0-20.777,0-31.166,0
	c0.019,0.448,0.037,0.896,0.055,1.344C163.995,189.796,174.419,189.938,184.629,185.292z"/>
<path fill-rule="evenodd" clip-rule="evenodd" fill="#FFFFFF" d="M187.498,193.472c-12.145,0-24.281,0-36.504,0
	C156.843,198.472,180.529,198.505,187.498,193.472z"/>
<path fill-rule="evenodd" clip-rule="evenodd" fill="#FFFFFF" d="M144.914,63.988c16.709-5.012,32.236-4.507,48.912,0.136
	C186.853,56.128,150.674,56.011,144.914,63.988z"/>
<path fill-rule="evenodd" clip-rule="evenodd" fill="#FFFFFF" d="M148.3,70.695c6.782-0.665,13.568-1.888,20.346-1.842
	c7.014,0.048,14.021,1.325,20.963,2.058C187.103,64.984,158.677,64.074,148.3,70.695z"/>
<path fill-rule="evenodd" clip-rule="evenodd" fill="#FFFFFF" d="M192.679,208.305c-15.621,3.813-31.216,3.997-47.563-0.576
	C150.555,215.396,184.568,215.578,192.679,208.305z"/>
<path fill-rule="evenodd" clip-rule="evenodd" fill="#FFFFFF" d="M151.003,78.885c12.16-2.925,24.332-2.758,36.516-0.063
	C180.369,72.891,156.559,72.993,151.003,78.885z"/>
<path fill-rule="evenodd" clip-rule="evenodd" fill="#FFFFFF" d="M189.738,200.175c-13.816,4.174-27.665,3.23-41.556,0.588
	C155.997,207.183,184.653,206.766,189.738,200.175z"/>
<path fill-rule="evenodd" clip-rule="evenodd" fill="#FFFFFF" d="M153.663,86.059c10.275,0,20.622,0,31.29,0
	C178,81.349,158.18,81.488,153.663,86.059z"/>
<path fill-rule="evenodd" clip-rule="evenodd" fill="#FFFFFF" d="M0,0v340.482h331.483V0H0z M320.902,328.9
	c-102.666,0-205.333,0-308,0c0-104,0-208,0-312c102.667,0,205.334,0,308,0C320.902,120.9,320.902,224.9,320.902,328.9z"/>
<path fill-rule="evenodd" clip-rule="evenodd" fill="#FFFFFF" d="M201.341,265.625c-0.365,6.173-0.73,12.345-1.096,18.518
	c0.52,0.226,1.037,0.451,1.557,0.678c0.659-0.99,1.92-2.006,1.878-2.965c-0.235-5.43-0.783-10.846-1.225-16.266
	C202.083,265.602,201.712,265.613,201.341,265.625z"/>
<path fill-rule="evenodd" clip-rule="evenodd" fill="#FFFFFF" d="M24.17,28.301c0,96.654,0,192.907,0,289.38
	c95.188,0,190.107,0,285.375,0c0-96.776,0-193.147,0-289.38C214.151,28.301,119.113,28.301,24.17,28.301z M58.303,303.915
	c-10.734,1.59-16.073-3.659-15.644-13.109c0.504-11.12,0.092-22.281,0.127-33.425c0.025-8.08,3.852-11.858,11.921-11.89
	c7.734-0.029,11.901,4.122,11.986,11.945c0.078,7.186-0.275,7.461-9.761,7.151c0-2.095,0.297-4.271-0.104-6.312
	c-0.272-1.388-1.523-2.583-2.336-3.864c-0.718,1.235-2.034,2.458-2.058,3.707c-0.178,9.145-0.098,18.293-0.099,27.441
	c0,1.995-0.259,4.04,0.096,5.971c0.25,1.36,1.337,2.567,2.05,3.844c0.816-1.361,2.182-2.663,2.337-4.096
	c0.354-3.252,0.111-6.569,0.111-9.668c0.69-0.236,0.878-0.374,0.988-0.327c3.009,1.272,8.342-1.953,8.751,4.344
	C67.43,297.339,64.866,302.942,58.303,303.915z M82.372,303.379c-3.028,0-5.793,0-9,0c0-18.852,0-37.825,0-57.144
	c3.161,0,5.922,0,9,0C82.372,265.38,82.372,284.223,82.372,303.379z M115.933,303.008c-7.034,1.436-7.016,1.43-9.01-4.876
	c-2.041-6.456-4.124-12.898-7.031-19.273c0,7.985,0,15.971,0,24.391c-3.414,0-6.286,0-9.563,0c0-18.896,0-37.765,0-56.623
	c6.864-1.508,7.182-1.324,9.247,5.009c2.093,6.417,4.211,12.826,6.319,19.238c0.325-0.056,0.65-0.11,0.975-0.166
	c0-8.046,0-16.093,0-24.449c3.198,0,5.927,0,9.062,0C115.933,265.336,115.933,284.196,115.933,303.008z M143.442,255.101
	c-3.178,0.153-6.274,0.304-9.729,0.471c0,3.827,0,7.405,0,11.141c2.868,0.633,6.465,0.498,8.506,2.214
	c1.285,1.08,0.24,4.933,0.24,7.813c-3.029,0.188-5.784,0.358-8.731,0.541c-0.143,1.316-0.359,2.445-0.371,3.577
	c-0.042,4.138-0.017,8.276-0.017,12.875c3.497,0,6.582,0,10.097,0c0,3.348,0,6.237,0,9.96c-3.048,0-6.295,0-9.541,0
	c-3.131,0-6.262,0-9.749,0c0-19.317,0-38.183,0-57.573c6.626,0,12.746,0,19.295,0C143.442,249.085,143.442,251.94,143.442,255.101z
	 M75.536,133.769c1.404-45.164,34.233-82.974,77.795-89.781c50.823-7.942,87.339,24.03,98.653,50.625
	c-1.209,0.746-2.449,1.511-4.058,2.502c-17.057-30.202-42.384-47.575-77.284-48.705c-25.013-0.811-46.694,8.231-64.331,26.049
	c-35.986,36.356-33.365,94.459,5.59,127.892c40.252,34.546,105.857,26.401,134.895-25.585c1.396,0.805,2.787,1.607,4.158,2.397
	c-14.814,30.739-54.863,57.552-102.094,47.568C105.58,217.583,74.169,177.75,75.536,133.769z M158.823,105.874
	c-13.018,4.269-22.022,16.863-21.768,30.391c0.258,13.688,9.462,25.752,22.673,29.718c14.724,4.42,27.569-1.195,38.187-16.934
	c2.236,1.246,4.504,2.511,6.731,3.753c-6.407,16.021-25.337,25.627-43.31,22.249c-18.878-3.549-32.438-19.65-32.616-38.731
	c-0.182-19.473,12.868-35.623,32.073-39.693c18.542-3.93,37.263,5.926,45.024,24.056c-2.464,1.378-4.615,2.581-7.168,4.01
	c-4.271-9.164-10.625-15.81-20.198-18.916C171.886,103.645,165.346,103.735,158.823,105.874z M173.822,136.093
	c-2.521,1.476-4.036,3.075-5.19,2.848c-1.291-0.254-2.255-2.165-3.362-3.354c1.229-1.099,2.392-2.956,3.707-3.07
	C170.139,132.415,171.47,134.255,173.822,136.093z M169.564,92.312c-12.187-0.415-22.834,4.023-31.539,12.678
	c-18.158,18.053-16.965,47.087,2.37,63.886c17.337,15.062,50.346,16.243,68.071-13.914c11.506,6.523,23.016,13.049,34.489,19.553
	c-11.071,24.627-45.134,51.391-88.204,44.117c-40.003-6.756-69.182-40.645-70.137-81.119c-0.94-39.862,26.923-75.179,65.775-83.687
	c42.827-9.378,79.928,15.186,93.9,45.295c-11.471,6.447-23,12.928-34.944,19.641C200.973,102.525,187.996,92.94,169.564,92.312z
	 M182.67,303.365c-3.042,0-5.95,0-9.44,0c0-7.937,0-15.83,0-23.723c-0.34-0.04-0.679-0.08-1.018-0.12
	c-1.515,5.675-3.029,11.35-4.543,17.024c-0.354,0.089-0.705,0.178-1.059,0.266c-1.588-5.687-3.176-11.373-4.764-17.06
	c-0.257,0.014-0.513,0.028-0.77,0.042c0,7.771,0,15.54,0,23.596c-3.467,0-6.38,0-9.72,0c0-18.979,0-37.835,0-56.701
	c7.748-1.997,8.643-1.482,10.41,6.214c1.663,7.237,3.276,14.486,4.911,21.73c0.329-0.08,0.657-0.16,0.985-0.239
	c1.588-7.135,3.173-14.27,4.762-21.404c1.744-7.828,1.746-7.828,10.245-6.517C182.67,265.289,182.67,284.162,182.67,303.365z
	 M205.843,302.611c-1.66-1.532-1.031-5.542-1.438-8.664c-1.604,0-3.037,0-4.891,0c-0.363,3.072-0.708,5.994-1.115,9.441
	c-3.327,0-6.236,0-9.512,0c1.48-13.371,2.92-26.405,4.369-39.438c0.516-4.629,1.258-9.244,1.514-13.887
	c0.176-3.193,1.359-4.206,4.568-4.21c8.973-0.01,9.072-0.167,10.089,8.55c1.888,16.171,3.646,32.356,5.565,49.489
	C211.544,303.533,207.612,304.244,205.843,302.611z M239.453,255.023c-2.004,0.2-3.948,0.394-6.414,0.64c0,15.788,0,31.485,0,47.603
	c-3.408,0-6.289,0-9.738,0c0-15.733,0-31.448,0-47.367c-2.577-0.382-4.641-0.688-6.846-1.015c0-2.918,0-5.649,0-8.662
	c7.75,0,15.164,0,22.998,0C239.453,249.116,239.453,251.982,239.453,255.023z M249.114,303.146c0-18.827,0-37.705,0-56.945
	c1.261-0.128,1.917-0.237,2.575-0.255c6.632-0.179,6.643-0.174,6.645,6.323c0.008,14.494,0.004,28.988,0.002,43.481
	C258.335,304.53,258.334,304.53,249.114,303.146z M291.023,263.806c-3.309,0.449-5.924,0.804-9.264,1.258
	c0-2.819,0.262-5.303-0.117-7.685c-0.176-1.104-1.598-2.012-2.455-3.008c-0.771,1.02-2.197,2.029-2.212,3.06
	c-0.159,11.491-0.175,22.987,0.015,34.479c0.019,1.165,1.625,2.304,2.494,3.455c0.764-1.246,2.059-2.441,2.185-3.75
	c0.317-3.277,0.104-6.605,0.104-10.438c2.678,0.335,4.936,0.479,7.117,0.964c0.781,0.174,1.968,1.179,1.965,1.8
	c-0.02,4.63,0.456,9.453-0.676,13.841c-1.401,5.429-6.438,7.16-14.145,6.155c-4.824-0.629-8.152-3.674-8.275-9.068
	c-0.303-13.312-0.359-26.641,0.019-39.948c0.179-6.282,5.036-9.669,11.788-9.42c7.326,0.271,11.252,3.8,11.445,10.365
	C291.083,258.333,291.023,260.807,291.023,263.806z"/>
</svg>
