<svg version="1.1" id="Layer_1" xmlns="http://www.w3.org/2000/svg" xmlns:xlink="http://www.w3.org/1999/xlink" x="0px" y="0px" width="308px" height="312px" viewBox="0 0 308 312" enable-background="new 0 0 308 312" xml:space="preserve">
	<defs>
		<clipPath id="clip">
				<path
					d="M308,311.998c-102.666,0-205.334,0-308,0C0,207.998,0,103.999,0,0c102.667,0,205.334,0,308,0
				C308,103.999,308,207.998,308,311.998z M296.643,300.779c0-96.777,0-193.147,0-289.378c-95.395,0-190.432,0-285.375,0
				c0,96.653,0,192.906,0,289.378C106.456,300.779,201.375,300.779,296.643,300.779z"/>
				<path
					fill-rule="evenodd"
					clip-rule="evenodd"
					fill="none"
					d="M296.643,300.779c-95.268,0-190.188,0-285.375,0
				c0-96.473,0-192.726,0-289.378c94.943,0,189.98,0,285.375,0C296.643,107.631,296.643,204.001,296.643,300.779z M195.565,138.059
				c-17.725,30.158-50.734,28.976-68.071,13.914c-19.335-16.798-20.528-45.831-2.37-63.883c8.704-8.654,19.352-13.093,31.539-12.678
				c18.432,0.629,31.408,10.214,39.781,26.449c11.943-6.713,23.473-13.193,34.943-19.64c-13.971-30.109-51.072-54.673-93.899-45.295
				c-38.852,8.508-66.715,43.824-65.775,83.685c0.955,40.474,30.134,74.362,70.137,81.118c43.071,7.273,77.133-19.49,88.204-44.117
				C218.581,151.107,207.071,144.582,195.565,138.059z M239.083,77.712c-11.314-26.595-47.83-58.567-98.654-50.625
				c-43.562,6.808-76.391,44.617-77.795,89.781c-1.366,43.979,30.044,83.813,73.325,92.96c47.231,9.984,87.28-16.828,102.094-47.568
				c-1.371-0.789-2.764-1.592-4.158-2.396C204.858,211.849,139.252,219.994,99,185.447c-38.956-33.434-41.576-91.534-5.59-127.889
				c17.636-17.817,39.317-26.859,64.331-26.049c34.9,1.13,60.227,18.503,77.283,48.705C236.633,79.223,237.874,78.458,239.083,77.712
				z M192.917,103.78c-7.762-18.128-26.482-27.984-45.024-24.054c-19.205,4.07-32.255,20.22-32.073,39.693
				c0.178,19.08,13.738,35.181,32.616,38.729c17.974,3.379,36.903-6.229,43.31-22.248c-2.227-1.242-4.494-2.508-6.73-3.754
				c-10.617,15.738-23.463,21.353-38.187,16.933c-13.211-3.967-22.416-16.029-22.673-29.716c-0.255-13.527,8.75-26.123,21.768-30.39
				c6.523-2.139,13.063-2.229,19.628-0.099c9.574,3.106,15.928,9.75,20.199,18.915C188.301,106.362,190.452,105.159,192.917,103.78z
				 M154.762,257.492c-0.328,0.08-0.656,0.16-0.986,0.24c-1.635-7.244-3.248-14.494-4.911-21.73
				c-1.767-7.697-2.662-8.211-10.41-6.215c0,18.867,0,37.723,0,56.701c3.34,0,6.253,0,9.72,0c0-8.055,0-15.824,0-23.596
				c0.256-0.014,0.513-0.027,0.77-0.041c1.588,5.686,3.176,11.373,4.765,17.059c0.354-0.088,0.705-0.176,1.059-0.266
				c1.514-5.674,3.027-11.35,4.543-17.023c0.338,0.039,0.678,0.08,1.018,0.119c0,7.893,0,15.787,0,23.723c3.49,0,6.398,0,9.439,0
				c0-19.203,0-38.076,0-56.891c-8.498-1.312-8.5-1.312-10.244,6.516C157.934,243.222,156.35,250.357,154.762,257.492z
				 M93.969,253.804c-0.325,0.057-0.65,0.111-0.975,0.166c-2.107-6.412-4.226-12.82-6.319-19.238
				c-2.065-6.332-2.383-6.516-9.247-5.008c0,18.857,0,37.727,0,56.623c3.277,0,6.149,0,9.563,0c0-8.42,0-16.406,0-24.391
				c2.907,6.375,4.99,12.816,7.031,19.273c1.994,6.305,1.976,6.311,9.01,4.875c0-18.811,0-37.672,0-56.75c-3.135,0-5.864,0-9.062,0
				C93.969,237.712,93.969,245.759,93.969,253.804z M185.499,286.486c0.406-3.447,0.752-6.369,1.115-9.441c1.854,0,3.287,0,4.891,0
				c0.406,3.123-0.223,7.133,1.438,8.664c1.768,1.633,5.701,0.922,9.15,1.283c-1.92-17.133-3.678-33.318-5.566-49.49
				c-1.016-8.717-1.115-8.559-10.088-8.549c-3.209,0.004-4.393,1.016-4.568,4.209c-0.256,4.643-0.998,9.258-1.514,13.887
				c-1.449,13.033-2.889,26.066-4.369,39.438C179.262,286.486,182.17,286.486,185.499,286.486z M44.031,247.685
				c9.485,0.311,9.839,0.035,9.761-7.15c-0.085-7.824-4.252-11.975-11.986-11.945c-8.069,0.031-11.896,3.809-11.921,11.889
				c-0.035,11.145,0.377,22.305-0.127,33.426c-0.429,9.449,4.91,14.699,15.644,13.109c6.563-0.973,9.127-6.576,8.368-18.287
				c-0.409-6.297-5.742-3.072-8.751-4.344c-0.11-0.047-0.297,0.09-0.988,0.326c0,3.1,0.242,6.416-0.111,9.668
				c-0.156,1.434-1.521,2.734-2.337,4.096c-0.713-1.275-1.8-2.482-2.05-3.844c-0.355-1.93-0.096-3.975-0.096-5.971
				c0-9.148-0.08-18.297,0.099-27.441c0.024-1.248,1.34-2.471,2.058-3.707c0.813,1.281,2.063,2.477,2.336,3.865
				C44.328,243.414,44.031,245.591,44.031,247.685z M278.122,246.904c0-3,0.061-5.473-0.012-7.941
				c-0.193-6.566-4.119-10.094-11.445-10.365c-6.752-0.25-11.609,3.137-11.789,9.42c-0.377,13.307-0.32,26.637-0.018,39.947
				c0.123,5.395,3.451,8.439,8.275,9.068c7.705,1.006,12.742-0.727,14.145-6.154c1.131-4.389,0.656-9.211,0.676-13.842
				c0.002-0.621-1.184-1.625-1.965-1.799c-2.182-0.486-4.439-0.629-7.117-0.965c0,3.834,0.213,7.162-0.105,10.439
				c-0.125,1.309-1.42,2.504-2.184,3.75c-0.869-1.152-2.477-2.291-2.494-3.455c-0.189-11.492-0.174-22.988-0.016-34.479
				c0.016-1.031,1.441-2.041,2.213-3.061c0.857,0.996,2.279,1.904,2.455,3.008c0.379,2.383,0.117,4.865,0.117,7.686
				C272.198,247.707,274.813,247.353,278.122,246.904z M111.245,229.216c0,19.391,0,38.256,0,57.574c3.487,0,6.618,0,9.749,0
				c3.246,0,6.493,0,9.541,0c0-3.723,0-6.613,0-9.961c-3.515,0-6.6,0-10.097,0c0-4.598-0.025-8.736,0.017-12.875
				c0.012-1.131,0.228-2.26,0.371-3.576c2.947-0.184,5.702-0.354,8.731-0.541c0-2.881,1.045-6.734-0.24-7.814
				c-2.041-1.715-5.638-1.58-8.506-2.213c0-3.736,0-7.314,0-11.141c3.455-0.168,6.551-0.318,9.729-0.471c0-3.16,0-6.016,0-8.982
				C123.991,229.216,117.871,229.216,111.245,229.216z M226.551,238.121c0-3.041,0-5.906,0-8.801c-7.834,0-15.248,0-22.998,0
				c0,3.012,0,5.744,0,8.662c2.205,0.326,4.268,0.633,6.846,1.014c0,15.92,0,31.635,0,47.367c3.449,0,6.33,0,9.738,0
				c0-16.117,0-31.814,0-47.602C222.602,238.515,224.547,238.322,226.551,238.121z M60.469,229.333c0,19.318,0,38.291,0,57.143
				c3.207,0,5.972,0,9,0c0-19.156,0-37.998,0-57.143C66.392,229.333,63.63,229.333,60.469,229.333z M236.211,229.298
				c0,19.24,0,38.119,0,56.945c9.221,1.385,9.223,1.385,9.223-7.395c0.002-14.494,0.006-28.988-0.002-43.482
				c-0.002-6.496-0.014-6.502-6.645-6.322C238.129,229.062,237.473,229.171,236.211,229.298z M160.92,119.192
				c-2.352-1.838-3.684-3.678-4.846-3.578c-1.314,0.115-2.478,1.973-3.707,3.07c1.107,1.189,2.07,3.102,3.361,3.355
				C156.883,122.266,158.399,120.667,160.92,119.192z"/>
				<path
					fill-rule="evenodd"
					clip-rule="evenodd"
					d="M195.565,138.059c11.506,6.523,23.016,13.048,34.488,19.552
				c-11.07,24.627-45.133,51.391-88.204,44.117c-40.003-6.756-69.182-40.645-70.137-81.118c-0.94-39.861,26.923-75.177,65.775-83.685
				c42.827-9.378,79.929,15.186,93.899,45.295c-11.471,6.447-23,12.927-34.943,19.64c-8.373-16.235-21.35-25.82-39.781-26.449
				c-12.188-0.415-22.835,4.023-31.539,12.678c-18.158,18.052-16.965,47.085,2.37,63.883
				C144.831,167.035,177.84,168.216,195.565,138.059z M179.778,191.402c-15.621,3.814-31.217,3.998-47.563-0.576
				C137.653,198.494,171.667,198.675,179.778,191.402z M132.012,47.088c16.709-5.012,32.236-4.507,48.912,0.136
				C173.952,39.228,137.772,39.11,132.012,47.088z M135.398,53.795c6.782-0.665,13.568-1.888,20.347-1.842
				c7.014,0.048,14.021,1.325,20.963,2.058C174.202,48.084,145.775,47.174,135.398,53.795z M176.836,183.273
				c-13.816,4.174-27.665,3.23-41.556,0.588C143.095,190.281,171.75,189.863,176.836,183.273z M138.102,61.984
				c12.16-2.925,24.333-2.758,36.516-0.063C167.467,55.99,143.657,56.093,138.102,61.984z M138.092,176.57
				c5.849,5,29.536,5.033,36.504,0C162.452,176.57,150.315,176.57,138.092,176.57z M171.727,168.39c-10.389,0-20.776,0-31.165,0
				c0.019,0.447,0.037,0.895,0.055,1.344C151.093,172.894,161.518,173.035,171.727,168.39z M172.051,69.158
				c-6.953-4.71-26.773-4.57-31.291,0C151.036,69.158,161.383,69.158,172.051,69.158z"/>
				<path
					fill-rule="evenodd"
					clip-rule="evenodd"
					d="M239.083,77.712c-1.209,0.746-2.449,1.511-4.059,2.502
				c-17.057-30.202-42.383-47.575-77.283-48.705c-25.014-0.811-46.695,8.231-64.331,26.049C57.424,93.913,60.044,152.013,99,185.447
				c40.252,34.547,105.858,26.402,134.895-25.584c1.395,0.805,2.787,1.607,4.158,2.396c-14.814,30.74-54.863,57.553-102.094,47.568
				c-43.281-9.146-74.691-48.98-73.325-92.96c1.404-45.164,34.233-82.973,77.795-89.781
				C191.252,19.145,227.768,51.117,239.083,77.712z"/>
				<path
					fill-rule="evenodd"
					clip-rule="evenodd"
					d="M192.917,103.78c-2.465,1.379-4.615,2.582-7.168,4.01
				c-4.271-9.164-10.625-15.809-20.199-18.915c-6.564-2.131-13.105-2.04-19.628,0.099c-13.018,4.267-22.022,16.863-21.768,30.39
				c0.258,13.687,9.462,25.749,22.673,29.716c14.724,4.42,27.57-1.195,38.187-16.933c2.236,1.246,4.504,2.512,6.73,3.754
				c-6.406,16.019-25.336,25.626-43.31,22.248c-18.878-3.549-32.438-19.65-32.616-38.729c-0.182-19.473,12.868-35.623,32.073-39.693
				C166.434,75.796,185.155,85.651,192.917,103.78z"/>
				<path
					fill-rule="evenodd"
					clip-rule="evenodd"
					d="M154.762,257.492c1.588-7.135,3.172-14.27,4.762-21.404
				c1.744-7.828,1.746-7.828,10.244-6.516c0,18.814,0,37.688,0,56.891c-3.041,0-5.949,0-9.439,0c0-7.936,0-15.83,0-23.723
				c-0.34-0.039-0.68-0.08-1.018-0.119c-1.516,5.674-3.029,11.35-4.543,17.023c-0.354,0.09-0.705,0.178-1.059,0.266
				c-1.589-5.686-3.177-11.373-4.765-17.059c-0.257,0.014-0.513,0.027-0.77,0.041c0,7.771,0,15.541,0,23.596c-3.467,0-6.38,0-9.72,0
				c0-18.979,0-37.834,0-56.701c7.748-1.996,8.643-1.482,10.41,6.215c1.663,7.236,3.276,14.486,4.911,21.73
				C154.106,257.652,154.434,257.572,154.762,257.492z"/>
				<path
					fill-rule="evenodd"
					clip-rule="evenodd"
					d="M93.969,253.804c0-8.045,0-16.092,0-24.449c3.198,0,5.927,0,9.062,0
				c0,19.078,0,37.939,0,56.75c-7.034,1.436-7.016,1.43-9.01-4.875c-2.041-6.457-4.124-12.898-7.031-19.273
				c0,7.984,0,15.971,0,24.391c-3.414,0-6.286,0-9.563,0c0-18.896,0-37.766,0-56.623c6.864-1.508,7.182-1.324,9.247,5.008
				c2.093,6.418,4.211,12.826,6.319,19.238C93.319,253.916,93.644,253.861,93.969,253.804z"/>
				<path
					fill-rule="evenodd"
					clip-rule="evenodd"
					d="M185.499,286.486c-3.328,0-6.236,0-9.512,0
				c1.48-13.371,2.92-26.404,4.369-39.438c0.516-4.629,1.258-9.244,1.514-13.887c0.176-3.193,1.359-4.205,4.568-4.209
				c8.973-0.01,9.072-0.168,10.088,8.549c1.889,16.172,3.646,32.357,5.566,49.49c-3.449-0.361-7.383,0.35-9.15-1.283
				c-1.66-1.531-1.031-5.541-1.438-8.664c-1.604,0-3.037,0-4.891,0C186.25,280.117,185.905,283.039,185.499,286.486z
				 M189.553,248.687c-0.371,0.012-0.742,0.023-1.113,0.035c-0.365,6.174-0.73,12.346-1.096,18.518
				c0.52,0.227,1.037,0.451,1.557,0.678c0.658-0.99,1.92-2.006,1.877-2.965C190.543,259.523,189.995,254.107,189.553,248.687z"/>
				<path
					fill-rule="evenodd"
					clip-rule="evenodd"
					d="M44.031,247.685c0-2.094,0.297-4.271-0.104-6.311
				c-0.272-1.389-1.523-2.584-2.336-3.865c-0.718,1.236-2.034,2.459-2.058,3.707c-0.178,9.145-0.098,18.293-0.099,27.441
				c0,1.996-0.259,4.041,0.096,5.971c0.25,1.361,1.337,2.568,2.05,3.844c0.816-1.361,2.182-2.662,2.337-4.096
				c0.354-3.252,0.111-6.568,0.111-9.668c0.69-0.236,0.878-0.373,0.988-0.326c3.009,1.271,8.342-1.953,8.751,4.344
				c0.76,11.711-1.804,17.314-8.368,18.287c-10.734,1.59-16.073-3.66-15.644-13.109c0.504-11.121,0.092-22.281,0.127-33.426
				c0.025-8.08,3.852-11.857,11.921-11.889c7.734-0.029,11.901,4.121,11.986,11.945C53.87,247.72,53.516,247.996,44.031,247.685z"/>
				<path
					fill-rule="evenodd"
					clip-rule="evenodd"
					d="M278.122,246.904c-3.309,0.449-5.924,0.803-9.264,1.258
				c0-2.82,0.262-5.303-0.117-7.686c-0.176-1.104-1.598-2.012-2.455-3.008c-0.771,1.02-2.197,2.029-2.213,3.061
				c-0.158,11.49-0.174,22.986,0.016,34.479c0.018,1.164,1.625,2.303,2.494,3.455c0.764-1.246,2.059-2.441,2.184-3.75
				c0.318-3.277,0.105-6.605,0.105-10.439c2.678,0.336,4.936,0.479,7.117,0.965c0.781,0.174,1.967,1.178,1.965,1.799
				c-0.02,4.631,0.455,9.453-0.676,13.842c-1.402,5.428-6.439,7.16-14.145,6.154c-4.824-0.629-8.152-3.674-8.275-9.068
				c-0.303-13.311-0.359-26.641,0.018-39.947c0.18-6.283,5.037-9.67,11.789-9.42c7.326,0.271,11.252,3.799,11.445,10.365
				C278.182,241.431,278.122,243.904,278.122,246.904z"/>
				<path
					fill-rule="evenodd"
					clip-rule="evenodd"
					d="M111.245,229.216c6.626,0,12.746,0,19.295,0c0,2.967,0,5.822,0,8.982
				c-3.178,0.152-6.274,0.303-9.729,0.471c0,3.826,0,7.404,0,11.141c2.868,0.633,6.465,0.498,8.506,2.213
				c1.285,1.08,0.24,4.934,0.24,7.814c-3.029,0.188-5.784,0.357-8.731,0.541c-0.143,1.316-0.359,2.445-0.371,3.576
				c-0.042,4.139-0.017,8.277-0.017,12.875c3.497,0,6.582,0,10.097,0c0,3.348,0,6.238,0,9.961c-3.048,0-6.295,0-9.541,0
				c-3.131,0-6.262,0-9.749,0C111.245,267.472,111.245,248.607,111.245,229.216z"/>
				<path
					fill-rule="evenodd"
					clip-rule="evenodd"
					d="M226.551,238.121c-2.004,0.201-3.949,0.395-6.414,0.641
				c0,15.787,0,31.484,0,47.602c-3.408,0-6.289,0-9.738,0c0-15.732,0-31.447,0-47.367c-2.578-0.381-4.641-0.688-6.846-1.014
				c0-2.918,0-5.65,0-8.662c7.75,0,15.164,0,22.998,0C226.551,232.214,226.551,235.08,226.551,238.121z"/>
				<path fill-rule="evenodd" clip-rule="evenodd" d="M60.469,229.333c3.161,0,5.922,0,9,0c0,19.145,0,37.986,0,57.143
				c-3.028,0-5.793,0-9,0C60.469,267.625,60.469,248.652,60.469,229.333z"/>
				<path
					fill-rule="evenodd"
					clip-rule="evenodd"
					d="M236.211,229.298c1.262-0.127,1.918-0.236,2.576-0.254
				c6.631-0.18,6.643-0.174,6.645,6.322c0.008,14.494,0.004,28.988,0.002,43.482c0,8.779-0.002,8.779-9.223,7.395
				C236.211,267.417,236.211,248.539,236.211,229.298z"/>
				<path fill-rule="evenodd" clip-rule="evenodd" d="M160.92,119.192c-2.521,1.475-4.037,3.074-5.191,2.848
				c-1.291-0.254-2.254-2.166-3.361-3.355c1.229-1.098,2.393-2.955,3.707-3.07C157.237,115.514,158.569,117.354,160.92,119.192z"/>
				<path fill-rule="evenodd" clip-rule="evenodd" fill="none" d="M179.778,191.402c-8.111,7.273-42.125,7.092-47.563-0.576
				C148.561,195.4,164.157,195.216,179.778,191.402z"/>
				<path fill-rule="evenodd" clip-rule="evenodd" fill="none" d="M132.012,47.088c5.76-7.978,41.939-7.86,48.912,0.136
				C164.249,42.581,148.721,42.076,132.012,47.088z"/>
				<path fill-rule="evenodd" clip-rule="evenodd" fill="none" d="M135.398,53.795c10.377-6.621,38.804-5.711,41.31,0.216
				c-6.941-0.732-13.949-2.01-20.963-2.058C148.966,51.907,142.18,53.13,135.398,53.795z"/>
				<path fill-rule="evenodd" clip-rule="evenodd" fill="none" d="M176.836,183.273c-5.086,6.59-33.741,7.008-41.556,0.588
				C149.171,186.503,163.02,187.447,176.836,183.273z"/>
				<path fill-rule="evenodd" clip-rule="evenodd" fill="none" d="M138.102,61.984c5.555-5.892,29.366-5.994,36.516-0.063
				C162.434,59.227,150.261,59.06,138.102,61.984z"/>
				<path fill-rule="evenodd" clip-rule="evenodd" fill="none" d="M138.092,176.57c12.223,0,24.36,0,36.504,0
				C167.627,181.603,143.941,181.57,138.092,176.57z"/>
				<path fill-rule="evenodd" clip-rule="evenodd" fill="none" d="M171.727,168.39c-10.209,4.645-20.634,4.504-31.11,1.344
				c-0.019-0.449-0.037-0.896-0.055-1.344C150.951,168.39,161.338,168.39,171.727,168.39z"/>
				<path fill-rule="evenodd" clip-rule="evenodd" fill="none" d="M172.051,69.158c-10.668,0-21.015,0-31.291,0
				C145.278,64.588,165.098,64.448,172.051,69.158z"/>
				<path
					fill-rule="evenodd"
					clip-rule="evenodd"
					fill="none"
					d="M189.553,248.687c0.441,5.42,0.99,10.836,1.225,16.266
				c0.043,0.959-1.219,1.975-1.877,2.965c-0.52-0.227-1.037-0.451-1.557-0.678c0.365-6.172,0.73-12.344,1.096-18.518
				C188.811,248.71,189.182,248.699,189.553,248.687z"/>
		</clipPath>
	</defs>
</svg>
